<?xml version="1.0" encoding="UTF-8" standalone="no" ?>
<!DOCTYPE svg PUBLIC "-//W3C//DTD SVG 1.1//EN" "http://www.w3.org/Graphics/SVG/1.1/DTD/svg11.dtd">
<svg xmlns="http://www.w3.org/2000/svg" xmlns:xlink="http://www.w3.org/1999/xlink" version="1.1" width="1080" height="1080" viewBox="0 0 1080 1080" xml:space="preserve">
<desc>Created with Fabric.js 5.2.4</desc>
<defs>
</defs>
<g transform="matrix(1 0 0 1 540 540)" id="80926f46-5747-4aa8-b99f-104c663028ad"  >
</g>
<g transform="matrix(1 0 0 1 540 540)" id="bf075737-0b9c-40da-a053-10d38ee8e7f7"  >
<rect style="stroke: none; stroke-width: 1; stroke-dasharray: none; stroke-linecap: butt; stroke-dashoffset: 0; stroke-linejoin: miter; stroke-miterlimit: 4; fill: rgb(255,255,255); fill-rule: nonzero; opacity: 1;" vector-effect="non-scaling-stroke"  x="-540" y="-540" rx="0" ry="0" width="1080" height="1080" />
</g>
<g transform="matrix(32.73 0 0 32.73 540 540)"  >
<g style=""   >
		<g transform="matrix(1 0 0 1 5.35 -0.04)"  >
<path style="stroke: none; stroke-width: 1; stroke-dasharray: none; stroke-linecap: butt; stroke-dashoffset: 0; stroke-linejoin: miter; stroke-miterlimit: 4; fill: #7b68ee; fill-rule: nonzero; opacity: 1;" vector-effect="non-scaling-stroke"  transform=" translate(-21.85, -16.46)" d="M 23.2 14.8 C 23.099999999999998 14.700000000000001 23 14.600000000000001 22.9 14.5 L 22.4 14 C 22 13.6 21.599999999999998 13.2 21.2 12.8 C 20.8 12.4 20.3 12.3 19.8 12.600000000000001 C 19.3 12.900000000000002 19.1 13.3 19.3 13.900000000000002 C 19.400000000000002 14.100000000000001 19.5 14.300000000000002 19.7 14.500000000000002 C 20.2 15.100000000000001 20.8 15.600000000000001 21.4 16.200000000000003 L 21.7 16.500000000000004 C 21.5 16.700000000000003 21.2 17.000000000000004 21 17.200000000000003 C 20.6 17.6 20.1 18.1 19.7 18.500000000000004 C 19.2 19.000000000000004 19.2 19.700000000000003 19.599999999999998 20.200000000000003 C 19.799999999999997 20.400000000000002 20.099999999999998 20.500000000000004 20.4 20.500000000000004 C 20.4 20.500000000000004 20.4 20.500000000000004 20.4 20.500000000000004 C 20.7 20.500000000000004 21 20.400000000000002 21.299999999999997 20.100000000000005 C 22.199999999999996 19.200000000000006 23.199999999999996 18.200000000000006 24.099999999999998 17.300000000000004 C 24.599999999999998 16.800000000000004 24.599999999999998 16.100000000000005 24.099999999999998 15.600000000000005 C 23.7 15.3 23.5 15 23.2 14.8 z" stroke-linecap="round" />
</g>
		<g transform="matrix(1 0 0 1 -0.05 -0.05)"  >
<path style="stroke: none; stroke-width: 1; stroke-dasharray: none; stroke-linecap: butt; stroke-dashoffset: 0; stroke-linejoin: miter; stroke-miterlimit: 4; fill: #7b68ee; fill-rule: nonzero; opacity: 1;" vector-effect="non-scaling-stroke"  transform=" translate(-16.45, -16.45)" d="M 31.2 13.6 C 31.2 12.799999999999999 30.8 12.4 30 12.4 C 29.4 12.4 28.9 12.4 28.4 12.4 C 28.299999999999997 12.1 28.2 11.9 28.099999999999998 11.6 C 27.999999999999996 11.299999999999999 27.9 11.1 27.799999999999997 10.799999999999999 L 27.799999999999997 10.799999999999999 C 27.999999999999996 10.6 28.199999999999996 10.399999999999999 28.499999999999996 10.1 C 28.599999999999998 10 28.799999999999997 9.799999999999999 28.899999999999995 9.7 C 29.199999999999996 9.399999999999999 29.299999999999994 9.1 29.299999999999994 8.799999999999999 C 29.299999999999994 8.499999999999998 29.099999999999994 8.2 28.799999999999994 7.899999999999999 C 27.699999999999992 6.799999999999999 26.499999999999993 5.699999999999998 25.499999999999993 4.599999999999999 L 25 4.1 C 24.7 3.8 24.4 3.6999999999999997 24.1 3.6999999999999997 L 24.1 3.6999999999999997 C 23.8 3.6999999999999997 23.5 3.8 23.200000000000003 4.1 C 23.1 4.199999999999999 22.900000000000002 4.3999999999999995 22.800000000000004 4.5 C 22.600000000000005 4.7 22.300000000000004 5 22.100000000000005 5.2 L 22.100000000000005 5.2 C 21.800000000000004 5.1000000000000005 21.600000000000005 5 21.300000000000004 4.9 C 21.000000000000004 4.800000000000001 20.800000000000004 4.7 20.500000000000004 4.6000000000000005 C 20.500000000000004 4.2 20.500000000000004 3.8000000000000007 20.500000000000004 3.5000000000000004 L 20.500000000000004 3 C 20.500000000000004 2 20.100000000000005 1.6 19.100000000000005 1.6 L 19.100000000000005 1.6 C 18.500000000000004 1.6 17.900000000000006 1.6 17.200000000000006 1.6 L 16.400000000000006 1.6 L 16 1.6 L 15.6 1.6 C 15 1.6 14.299999999999999 1.6 13.6 1.6 C 12.9 1.6 12.4 2.1 12.4 2.8 C 12.4 3.3 12.4 3.8 12.4 4.4 C 12.3 4.4 12.200000000000001 4.5 12.1 4.5 C 12 4.5 11.799999999999999 4.6 11.7 4.6 C 11.399999999999999 4.699999999999999 11.1 4.8 10.799999999999999 5 C 10.799999999999999 5 10.7 5 10.7 5.1 C 10.299999999999999 4.699999999999999 10 4.3 9.6 3.9999999999999996 C 9.299999999999999 3.6999999999999997 9 3.4999999999999996 8.6 3.5999999999999996 C 8.2 3.5999999999999996 7.8999999999999995 3.8 7.6 4.3 C 6.6 5.7 5.5 6.8 4.3 7.7 C 3.9 8 3.7 8.4 3.6 8.8 C 3.6 9.100000000000001 3.7 9.5 4 9.8 C 4.3 10.200000000000001 4.7 10.5 5.1 10.9 C 4.8999999999999995 11.4 4.699999999999999 11.9 4.3999999999999995 12.5 C 3.8999999999999995 12.5 3.2999999999999994 12.5 2.7999999999999994 12.5 C 2.0999999999999996 12.5 1.5999999999999994 13 1.5999999999999994 13.7 C 1.5999999999999994 15.5 1.5999999999999994 17.4 1.5999999999999994 19.299999999999997 C 1.5999999999999994 20.099999999999998 1.9999999999999996 20.499999999999996 2.7999999999999994 20.499999999999996 C 3.2999999999999994 20.499999999999996 3.8999999999999995 20.499999999999996 4.3999999999999995 20.499999999999996 C 4.3999999999999995 20.499999999999996 4.3999999999999995 20.499999999999996 4.3999999999999995 20.599999999999998 C 4.499999999999999 21.099999999999998 4.699999999999999 21.599999999999998 4.999999999999999 21.999999999999996 C 4.999999999999999 22.099999999999998 5.099999999999999 22.099999999999998 5.099999999999999 22.099999999999998 C 4.799999999999999 22.4 4.399999999999999 22.799999999999997 4.099999999999999 23.099999999999998 L 4 23.2 C 3.7 23.5 3.6 23.8 3.6 24.099999999999998 C 3.6 24.4 3.8000000000000003 24.799999999999997 4.2 25.099999999999998 C 5.5 26.299999999999997 6.7 27.499999999999996 7.9 28.799999999999997 C 8.200000000000001 29.099999999999998 8.5 29.299999999999997 8.9 29.299999999999997 C 9.200000000000001 29.299999999999997 9.5 29.199999999999996 9.8 28.9 C 10.200000000000001 28.5 10.5 28.2 10.9 27.799999999999997 C 11.4 27.999999999999996 12 28.299999999999997 12.5 28.499999999999996 C 12.5 28.999999999999996 12.5 29.499999999999996 12.5 29.999999999999996 C 12.5 30.799999999999997 13 31.299999999999997 13.7 31.299999999999997 C 14.6 31.299999999999997 15.5 31.299999999999997 16.5 31.299999999999997 C 17.4 31.299999999999997 18.4 31.299999999999997 19.3 31.299999999999997 C 20.1 31.299999999999997 20.5 30.9 20.5 30.099999999999998 C 20.5 29.499999999999996 20.5 28.999999999999996 20.5 28.499999999999996 L 20.5 28.499999999999996 C 20.5 28.499999999999996 20.6 28.499999999999996 20.6 28.499999999999996 C 21.1 28.399999999999995 21.6 28.199999999999996 22 27.899999999999995 C 22 27.899999999999995 22.1 27.899999999999995 22.1 27.899999999999995 C 22.400000000000002 28.199999999999996 22.8 28.599999999999994 23.200000000000003 28.999999999999996 C 23.6 29.399999999999995 23.900000000000002 29.399999999999995 24.200000000000003 29.399999999999995 C 24.6 29.399999999999995 24.900000000000002 29.099999999999994 25.200000000000003 28.799999999999994 C 26.1 27.599999999999994 27.200000000000003 26.399999999999995 28.700000000000003 25.299999999999994 C 29.1 24.999999999999993 29.300000000000004 24.699999999999992 29.300000000000004 24.299999999999994 C 29.300000000000004 23.999999999999993 29.200000000000003 23.599999999999994 28.900000000000006 23.299999999999994 C 28.500000000000007 22.799999999999994 28.100000000000005 22.499999999999993 27.800000000000004 22.199999999999992 L 27.800000000000004 22.199999999999992 C 27.800000000000004 22.199999999999992 27.800000000000004 22.09999999999999 27.900000000000006 21.999999999999993 C 28.200000000000006 21.599999999999994 28.300000000000004 21.199999999999992 28.400000000000006 20.699999999999992 C 28.400000000000006 20.59999999999999 28.400000000000006 20.59999999999999 28.500000000000007 20.499999999999993 C 29.10000000000001 20.499999999999993 29.700000000000006 20.499999999999993 30.10000000000001 20.499999999999993 C 30.90000000000001 20.499999999999993 31.300000000000008 19.999999999999993 31.300000000000008 19.299999999999994 C 31.2 17.4 31.2 15.6 31.2 13.6 z M 28.9 18.1 L 28.9 18.1 C 28.5 18.1 28.2 18.1 27.799999999999997 18.1 C 27.199999999999996 18.1 26.599999999999998 18.5 26.299999999999997 19.1 C 25.999999999999996 19.8 25.699999999999996 20.6 25.299999999999997 21.400000000000002 C 24.999999999999996 22.1 24.9 22.500000000000004 25.599999999999998 23.1 C 25.9 23.400000000000002 26.099999999999998 23.6 26.299999999999997 23.8 L 24 26.5 C 23.8 26.3 23.5 26 23.3 25.8 C 22.7 25.2 22.3 25.2 21.5 25.5 C 20.8 25.8 20 26.1 19.1 26.5 C 18.5 26.7 18.1 27 18.1 27.8 C 18.1 28.2 18.1 28.5 18.1 28.900000000000002 L 18.1 29.000000000000004 L 14.600000000000001 29.000000000000004 L 14.600000000000001 28.900000000000002 C 14.600000000000001 28.500000000000004 14.600000000000001 28.200000000000003 14.600000000000001 27.900000000000002 C 14.600000000000001 27.000000000000004 14.3 26.8 13.600000000000001 26.500000000000004 C 12.8 26.200000000000003 12.000000000000002 25.900000000000002 11.200000000000001 25.500000000000004 C 10.500000000000002 25.200000000000003 10.100000000000001 25.200000000000003 9.500000000000002 25.800000000000004 C 9.200000000000001 26.100000000000005 9.000000000000002 26.300000000000004 8.800000000000002 26.600000000000005 L 8.800000000000002 26.600000000000005 L 6.4 24 L 6.4 24 C 6.7 23.7 6.9 23.5 7.2 23.2 C 7.9 22.5 7.7 22.099999999999998 7.3 21.3 C 7 20.7 6.7 20 6.5 19.3 C 6.3 18.7 6.1 18.2 5.1 18.2 C 4.699999999999999 18.2 4.3999999999999995 18.2 3.9999999999999996 18.2 L 3.9 18.2 L 3.9 14.7 L 3.9 14.7 C 4.2 14.7 4.6 14.7 4.9 14.7 C 5.800000000000001 14.7 6.1000000000000005 14.399999999999999 6.4 13.6 C 6.7 12.9 7 12.1 7.4 11.3 C 7.7 10.600000000000001 7.800000000000001 10.200000000000001 7.1000000000000005 9.600000000000001 C 6.9 9.4 6.6 9.1 6.4 8.9 L 6.4 8.9 L 8.9 6.4 C 9.1 6.7 9.4 6.9 9.6 7.2 C 10.2 7.8 10.6 7.8 11.299999999999999 7.5 C 11.999999999999998 7.2 12.799999999999999 6.8 13.7 6.5 C 14.299999999999999 6.3 14.7 6 14.7 5.2 C 14.7 4.8 14.7 4.5 14.7 4.1 L 14.7 4 L 18.2 4 L 18.2 4 C 18.2 4.4 18.2 4.7 18.2 5.1 C 18.2 6 18.5 6.199999999999999 19.2 6.5 C 20 6.8 20.7 7.1 21.599999999999998 7.5 C 22.2 7.8 22.7 7.8 23.2 7.3 C 23.5 7 23.7 6.8 24 6.5 L 24 6.5 L 26.4 9 L 26.4 9 C 26.099999999999998 9.3 25.9 9.5 25.599999999999998 9.8 C 24.999999999999996 10.4 25.099999999999998 10.9 25.499999999999996 11.600000000000001 C 25.799999999999997 12.200000000000001 26.099999999999998 12.900000000000002 26.399999999999995 13.8 C 26.599999999999994 14.5 26.899999999999995 14.8 27.699999999999996 14.9 C 28.099999999999994 14.9 28.399999999999995 14.9 28.799999999999997 14.9 L 28.9 14.9 L 28.9 18.1 L 28.9 18.1 z" stroke-linecap="round" />
</g>
		<g transform="matrix(1 0 0 1 -5.51 0)"  >
<path style="stroke: none; stroke-width: 1; stroke-dasharray: none; stroke-linecap: butt; stroke-dashoffset: 0; stroke-linejoin: miter; stroke-miterlimit: 4; fill: #7b68ee; fill-rule: nonzero; opacity: 1;" vector-effect="non-scaling-stroke"  transform=" translate(-10.99, -16.5)" d="M 13.2 14.5 C 13.7 14 13.799999999999999 13.3 13.299999999999999 12.8 C 13.1 12.600000000000001 12.799999999999999 12.5 12.499999999999998 12.5 L 12.499999999999998 12.5 C 12.199999999999998 12.5 11.799999999999999 12.7 11.499999999999998 12.9 C 10.599999999999998 13.8 9.699999999999998 14.700000000000001 8.799999999999997 15.600000000000001 C 8.199999999999998 16.200000000000003 8.199999999999998 16.8 8.799999999999997 17.400000000000002 C 9.299999999999997 17.900000000000002 9.799999999999997 18.400000000000002 10.299999999999997 18.900000000000002 L 10.899999999999997 19.500000000000004 C 10.999999999999996 19.600000000000005 10.999999999999996 19.600000000000005 11.099999999999996 19.700000000000003 C 11.299999999999995 19.900000000000002 11.399999999999997 20.000000000000004 11.599999999999996 20.200000000000003 C 11.899999999999997 20.400000000000002 12.099999999999996 20.500000000000004 12.399999999999997 20.500000000000004 C 12.699999999999998 20.500000000000004 12.999999999999996 20.400000000000002 13.199999999999998 20.200000000000003 C 13.599999999999998 19.800000000000004 13.599999999999998 19.1 13.199999999999998 18.6 C 13.099999999999998 18.5 12.999999999999998 18.400000000000002 12.999999999999998 18.400000000000002 L 11.099999999999998 16.6 L 11.499999999999998 16.200000000000003 C 12.1 15.5 12.6 15 13.2 14.5 z" stroke-linecap="round" />
</g>
		<g transform="matrix(1 0 0 1 -0.1 -0.17)"  >
<path style="stroke: none; stroke-width: 1; stroke-dasharray: none; stroke-linecap: butt; stroke-dashoffset: 0; stroke-linejoin: miter; stroke-miterlimit: 4; fill: #7b68ee; fill-rule: nonzero; opacity: 1;" vector-effect="non-scaling-stroke"  transform=" translate(-16.4, -16.33)" d="M 18.3 11.8 C 18 11.700000000000001 17.7 11.600000000000001 17.400000000000002 11.700000000000001 C 17.1 11.8 16.8 12.100000000000001 16.700000000000003 12.4 C 16.300000000000004 13.4 15.900000000000002 14.4 15.500000000000004 15.4 L 15.100000000000003 16.5 C 14.700000000000003 17.5 14.300000000000002 18.5 13.900000000000004 19.4 C 13.700000000000005 19.799999999999997 13.800000000000004 20.2 14.000000000000004 20.5 C 14.200000000000003 20.8 14.500000000000004 21 14.800000000000004 21 C 14.900000000000004 21 14.900000000000004 21 15.000000000000004 21 C 15.500000000000004 21 15.900000000000004 20.7 16.100000000000005 20.1 C 17.000000000000004 17.8 17.900000000000006 15.500000000000002 18.900000000000006 13.200000000000001 C 18.900000000000006 13.100000000000001 19.000000000000007 13.000000000000002 19.000000000000007 12.9 L 19.000000000000007 12.8 L 19.000000000000007 13 C 19 12.3 18.6 12 18.3 11.8 z" stroke-linecap="round" />
</g>
</g>
</g>
</svg>