<?xml version="1.0" encoding="utf-8"?>
<!-- Generator: Adobe Illustrator 27.5.0, SVG Export Plug-In . SVG Version: 6.00 Build 0)  -->
<svg version="1.1" xmlns="http://www.w3.org/2000/svg" xmlns:xlink="http://www.w3.org/1999/xlink" x="0px" y="0px"
	 viewBox="0 0 500 500" style="enable-background:new 0 0 500 500;" xml:space="preserve">
<g id="BACKGROUND">
	<circle style="fill:#4E69FF;" cx="468.233" cy="406.556" r="3.5"/>
	<circle style="opacity:0.47;fill:#9FBFFF;" cx="449.986" cy="449.86" r="3.5"/>
	<circle style="fill:#9FBFFF;" cx="35.017" cy="86.481" r="2.72"/>
	<path style="fill:#4E69FF;" d="M244.585,51.74c0,2.68-2.172,4.852-4.852,4.852s-4.852-2.172-4.852-4.852s2.172-4.852,4.852-4.852
		S244.585,49.061,244.585,51.74z"/>
	<path style="fill:#4E69FF;" d="M39.59,123.422c0,2.526-2.047,4.573-4.573,4.573c-2.525,0-4.573-2.047-4.573-4.573
		c0-2.525,2.047-4.573,4.573-4.573C37.543,118.849,39.59,120.897,39.59,123.422z"/>
	<circle style="fill:#1B1B25;" cx="69.947" cy="80.593" r="1.717"/>
	<path style="fill:#9FBFFF;" d="M469.73,95.709c-1.251-0.832-1.591-2.521-0.759-3.772c0.832-1.251,2.521-1.591,3.772-0.759
		c1.251,0.832,1.591,2.521,0.759,3.772C472.67,96.2,470.981,96.54,469.73,95.709z"/>
	<path style="fill:#9FBFFF;" d="M105.592,452.126c-1.251-0.832-1.591-2.52-0.759-3.772c0.832-1.251,2.52-1.591,3.772-0.759
		c1.251,0.832,1.591,2.52,0.759,3.772C108.532,452.618,106.843,452.958,105.592,452.126z"/>
	
		<ellipse transform="matrix(0.9799 -0.1993 0.1993 0.9799 -6.2305 84.0709)" style="fill:#4E69FF;" cx="414.59" cy="72.991" rx="4.573" ry="4.573"/>
	<path style="fill:#1B1B25;" d="M429.968,127.221c-0.79-0.525-1.004-1.591-0.479-2.38c0.525-0.79,1.591-1.004,2.38-0.479
		c0.79,0.525,1.004,1.591,0.479,2.38C431.824,127.532,430.758,127.746,429.968,127.221z"/>
	<path style="opacity:0.41;fill:#9FBFFF;" d="M84.759,36.948c1.873-9.573,12.916-15.47,24.665-13.171
		c11.749,2.299,27.919,13.52,26.046,23.093c-1.873,9.573-20.382,6.487-31.574,9.098C88.286,59.611,82.886,46.52,84.759,36.948z"/>
	<g>
		<g>
			<g style="opacity:0.18;">
				<g>
					<g>
						<g>
							<path style="fill:#9FBFFF;" d="M448.269,415.103c18.508-24.07,30.676-56.88,29.068-87.579
								c-1.668-31.849-14.31-60.908-10.136-93.809c2.386-18.813,8.941-37.093,9.273-56.055
								c1.57-89.593-143.463-161.532-197.779-75.64c-3.724,5.888-6.752,12.362-11.779,17.185c-6.264,6.01-15.433,8.842-23.995,7.411
								c-13.805-2.306-25.716-12.586-39.182-16.722c-12.19-3.744-24.88-5.593-37.628-5.618
								c-25.306-0.049-50.587,7.067-72.433,19.768c-43.636,25.369-70.738,73.039-61.98,123.89
								c5.182,30.092,22.986,56.505,42.898,79.655c38.084,44.278,85.405,80.293,137.23,107.22
								c41.875,21.757,88.358,37.923,135.425,34.512C388.862,466.304,424.84,445.572,448.269,415.103z"/>
						</g>
					</g>
				</g>
			</g>
			<g style="opacity:0.47;">
				<g>
					<g>
						<g>
							<path style="fill:#9FBFFF;" d="M475.467,324.28c4.011-28.001-1.121-60.197-16.468-84.377
								c-15.922-25.086-39.474-42.888-51.137-71.501c-6.669-16.361-9.711-34.195-18.115-49.737
								c-39.708-73.433-190.326-65.479-195.12,29.078c-0.329,6.482,0.175,13.121-1.699,19.335
								c-2.335,7.743-8.481,14.235-16.085,16.991c-12.259,4.443-26.629,1.548-39.45,4.351c-11.606,2.537-22.751,6.841-33.109,12.653
								c-20.561,11.536-37.825,28.875-49.746,49.176c-23.812,40.55-24.002,91.637,6.366,128.902
								c17.971,22.053,44.503,35.346,71.253,45.027c51.164,18.517,106.044,26.101,160.423,24.249
								c43.939-1.496,89.06-9.638,125.699-33.936C450.671,393.011,470.389,359.726,475.467,324.28z"/>
						</g>
					</g>
				</g>
			</g>
			<g style="opacity:0.47;">
				<g>
					<g>
						<g>
							<path style="fill:#9FBFFF;" d="M451.31,326.078c3.173-22.151-0.886-47.619-13.027-66.747
								c-12.595-19.844-31.226-33.927-40.452-56.561c-5.276-12.942-7.682-27.05-14.33-39.345
								c-31.411-58.09-150.558-51.798-154.351,23.002c-0.26,5.128,0.138,10.38-1.344,15.295
								c-1.847,6.125-6.709,11.261-12.724,13.441c-9.698,3.515-21.065,1.225-31.207,3.442c-9.181,2.007-17.998,5.412-26.191,10.009
								c-16.265,9.125-29.921,22.842-39.352,38.901c-18.836,32.077-18.987,72.49,5.035,101.969
								c14.216,17.445,35.204,27.961,56.365,35.619c40.473,14.648,83.886,20.647,126.903,19.182
								c34.758-1.184,70.451-7.624,99.435-26.845C431.696,380.447,447.293,354.117,451.31,326.078z"/>
						</g>
					</g>
				</g>
			</g>
			<g style="opacity:0.31;">
				<path style="fill:#9FBFFF;" d="M450.914,157.658c-0.785,3.385-4.165,5.493-7.549,4.708c-3.385-0.785-5.492-4.165-4.708-7.549
					c0.785-3.385,4.165-5.493,7.549-4.708C449.591,150.893,451.699,154.273,450.914,157.658z"/>
			</g>
			<g style="opacity:0.31;">
				<path style="fill:#9FBFFF;" d="M465.284,58.177c-0.875,6.516-6.867,11.088-13.383,10.213
					c-6.516-0.875-11.088-6.868-10.213-13.383c0.875-6.516,6.867-11.088,13.383-10.213C461.587,45.67,466.159,51.661,465.284,58.177
					z"/>
			</g>
			<g style="opacity:0.31;">
				
					<ellipse transform="matrix(0.7977 -0.603 0.603 0.7977 -252.9369 127.7026)" style="fill:#9FBFFF;" cx="63.876" cy="440.861" rx="19.546" ry="19.546"/>
			</g>
			<g style="opacity:0.31;">
				<path style="fill:#9FBFFF;" d="M65.505,203.143c-0.302,2.25-2.371,3.829-4.621,3.526c-2.25-0.302-3.829-2.371-3.526-4.621
					c0.302-2.25,2.371-3.829,4.621-3.526C64.228,198.824,65.807,200.893,65.505,203.143z"/>
			</g>
		</g>
	</g>
</g>
<g id="OBJECTS">
	<g>
		<g>
			<path style="fill:#1B1B25;" d="M419.829,362.412l-103.544,62.091c-4.799,2.878-10.791,2.89-15.602,0.033L69.084,286.967
				c-3.776-2.243-6.132-6.271-6.235-10.661l-0.434-18.367l117.678-61.782l245.617,136.638v19.235
				C425.709,356.283,423.477,360.225,419.829,362.412z"/>
			<path style="fill:#292930;" d="M421.282,338.442l-101.264,60.861c-7.626,4.583-17.151,4.615-24.808,0.083L67.017,264.309
				c-6.181-3.659-6.127-12.622,0.098-16.206l104.643-60.249c5.157-2.969,11.507-2.961,16.656,0.022l232.741,134.837
				C427.171,326.2,427.24,334.861,421.282,338.442z"/>
			<polygon style="fill:#FFFFFF;" points="86.73,265.309 196.457,200.942 389.909,312.879 276.874,377.687 			"/>
			<path style="fill:#CCCCCC;" d="M353.946,362.083c-7.609,0-13.8-3.891-13.8-8.672c0-4.782,6.19-8.673,13.8-8.673
				s13.8,3.891,13.8,8.673C367.746,358.192,361.556,362.083,353.946,362.083z M353.946,345.738c-7.058,0-12.8,3.442-12.8,7.673
				c0,4.23,5.742,7.672,12.8,7.672s12.8-3.441,12.8-7.672C366.746,349.181,361.004,345.738,353.946,345.738z"/>
			<path style="fill:#CCCCCC;" d="M365.072,387.117c-0.324,0-0.649-0.08-0.953-0.243c-0.663-0.356-1.059-1.018-1.059-1.771V381.5
				c0-0.822,0.415-1.573,1.111-2.011l19.398-12.177l0,0c0.505-0.316,1.12-0.34,1.648-0.065c0.528,0.275,0.861,0.795,0.891,1.39
				l0.168,3.376c0.042,0.86-0.377,1.689-1.094,2.165l-19.004,12.601C365.839,387.004,365.457,387.117,365.072,387.117z
				 M384.102,368.16l-19.398,12.177c-0.402,0.252-0.643,0.688-0.643,1.163v3.603c0,0.378,0.199,0.711,0.531,0.89
				c0.331,0.176,0.719,0.16,1.035-0.049l19.004-12.6c0.425-0.281,0.673-0.773,0.648-1.282l-0.168-3.376
				c-0.013-0.239-0.142-0.44-0.355-0.552C384.544,368.022,384.305,368.032,384.102,368.16L384.102,368.16z"/>
			<path style="fill:#CCCCCC;" d="M110.231,238.196c-0.175,0-0.345-0.092-0.437-0.255c-0.135-0.241-0.049-0.546,0.191-0.681
				l35.732-20.029c0.242-0.135,0.545-0.049,0.681,0.191c0.135,0.241,0.049,0.546-0.191,0.681l-35.732,20.029
				C110.397,238.175,110.313,238.196,110.231,238.196z"/>
			<path style="fill:#CCCCCC;" d="M123.615,311.29c-0.45,0-0.898-0.122-1.303-0.364l-30.148-18.04
				c-0.804-0.481-1.277-1.361-1.233-2.298l0,0c0.042-0.895,0.538-1.686,1.326-2.113c0.788-0.428,1.721-0.412,2.495,0.04
				l30.166,17.663c0.818,0.479,1.298,1.364,1.254,2.311l-0.018,0.377c-0.042,0.901-0.542,1.693-1.337,2.12
				C124.437,311.189,124.025,311.29,123.615,311.29z M91.929,290.635c-0.027,0.567,0.26,1.102,0.748,1.393l30.148,18.04
				c0.469,0.279,1.036,0.295,1.518,0.035c0.482-0.258,0.785-0.738,0.811-1.285l0.018-0.377c0.027-0.574-0.264-1.11-0.76-1.4
				l-30.166-17.663c-0.47-0.274-1.034-0.285-1.513-0.024C92.255,289.613,91.955,290.092,91.929,290.635L91.929,290.635z"/>
			<path style="fill:#CCCCCC;" d="M163.509,333.397c-0.436,0-0.871-0.114-1.267-0.342l-30.445-17.536
				c-0.812-0.468-1.299-1.34-1.271-2.276l0,0c0.027-0.896,0.509-1.695,1.29-2.136c0.78-0.441,1.713-0.441,2.495-0.001l30.456,17.157
				c0.825,0.465,1.32,1.342,1.292,2.29l-0.011,0.376c-0.027,0.902-0.514,1.703-1.301,2.143
				C164.358,333.289,163.934,333.397,163.509,333.397z M131.526,313.272c-0.017,0.568,0.278,1.097,0.77,1.38l30.445,17.536
				c0.474,0.274,1.042,0.275,1.519,0.011c0.477-0.267,0.772-0.753,0.788-1.299l0.011-0.377c0.017-0.575-0.283-1.106-0.783-1.389
				l-30.456-17.157c-0.473-0.268-1.038-0.267-1.513,0.001C131.834,312.245,131.542,312.729,131.526,313.272L131.526,313.272z"/>
		</g>
		<g style="opacity:0.28;">
			<g>
				<path style="fill:#9FBFFF;" d="M370.321,317.935l-14.513-7.763l-25.923-14.725c-1.37-0.778-3.05-0.775-4.418,0.008
					l-68.712,39.343c-2.457,1.407-2.47,4.945-0.023,6.37l19.841,11.555c2.361,1.375,5.281,1.362,7.63-0.032l60.428-35.881
					L370.321,317.935z"/>
				<path style="fill:#4E69FF;" d="M372.513,309.095L358,301.332l-25.923-14.725c-1.37-0.778-3.05-0.776-4.418,0.008l-68.712,39.343
					c-2.457,1.407-2.47,4.945-0.023,6.37l19.841,11.555c2.361,1.375,5.281,1.362,7.63-0.032l60.428-35.881L372.513,309.095z"/>
				<path style="fill:#FFFFFF;" d="M270.072,328.956c-0.169,0-0.334-0.086-0.429-0.242c-0.142-0.236-0.065-0.544,0.171-0.687
					l35.776-21.552c0.234-0.14,0.543-0.066,0.686,0.171c0.142,0.236,0.066,0.544-0.171,0.686l-35.776,21.552
					C270.25,328.933,270.16,328.956,270.072,328.956z"/>
				<path style="fill:#FFFFFF;" d="M276.4,333.111c-0.17,0-0.336-0.087-0.43-0.244c-0.142-0.237-0.064-0.544,0.174-0.686
					l42.978-25.627c0.234-0.142,0.543-0.065,0.685,0.174c0.142,0.237,0.064,0.544-0.174,0.686l-42.978,25.627
					C276.576,333.089,276.488,333.111,276.4,333.111z"/>
				<path style="fill:#FFFFFF;" d="M283.202,336.917c-0.168,0-0.332-0.085-0.427-0.239c-0.144-0.235-0.07-0.543,0.166-0.688
					l39.557-24.235c0.233-0.142,0.543-0.07,0.688,0.166c0.144,0.235,0.07,0.543-0.166,0.688l-39.557,24.235
					C283.382,336.894,283.292,336.917,283.202,336.917z"/>
				<path style="fill:#FFFFFF;" d="M332.956,307.565c-0.027,0-0.055,0-0.082,0c-2.58-0.016-5.008-0.775-6.835-2.137
					c-1.873-1.396-2.897-3.259-2.886-5.244c0.024-4.019,4.382-7.266,9.73-7.266c0.026,0,0.052,0,0.078,0
					c2.58,0.016,5.008,0.774,6.835,2.137c1.873,1.397,2.897,3.26,2.886,5.245c-0.012,1.985-1.059,3.836-2.948,5.21
					C337.911,306.836,335.506,307.565,332.956,307.565z M332.883,293.918c-4.8,0-8.709,2.803-8.729,6.272
					c-0.01,1.659,0.872,3.235,2.483,4.438c1.657,1.235,3.875,1.924,6.243,1.938c2.353,0,4.595-0.648,6.267-1.863
					c1.625-1.183,2.526-2.747,2.536-4.407c0.01-1.66-0.872-3.235-2.483-4.438c-1.657-1.236-3.875-1.925-6.243-1.938
					C332.932,293.918,332.907,293.918,332.883,293.918z"/>
			</g>
			<g>
				<path style="fill:#9FBFFF;" d="M281.596,266.788l-14.513-7.763l-25.923-14.725c-1.37-0.778-3.05-0.776-4.418,0.008
					L168.03,283.65c-2.457,1.407-2.47,4.945-0.023,6.37l19.841,11.555c2.361,1.375,5.281,1.362,7.63-0.032l60.428-35.881
					L281.596,266.788z"/>
				<g>
					<path style="fill:#4E69FF;" d="M238.934,235.467l-68.712,39.343c-2.457,1.407-2.47,4.945-0.023,6.37l19.841,11.555
						c2.361,1.375,5.281,1.363,7.63-0.032l71.605-42.518l-25.923-14.725C241.981,234.681,240.302,234.684,238.934,235.467z"/>
					<polygon style="fill:#4E69FF;" points="283.787,257.947 269.275,250.184 258.098,256.821 					"/>
				</g>
				<path style="fill:#FFFFFF;" d="M181.348,277.809c-0.169,0-0.335-0.086-0.429-0.242c-0.143-0.236-0.066-0.544,0.17-0.686
					l35.776-21.552c0.236-0.141,0.543-0.067,0.686,0.171c0.143,0.236,0.066,0.544-0.17,0.686l-35.776,21.552
					C181.524,277.785,181.435,277.809,181.348,277.809z"/>
				<path style="fill:#FFFFFF;" d="M187.676,281.964c-0.17,0-0.336-0.087-0.43-0.244c-0.141-0.237-0.063-0.544,0.174-0.685
					l42.977-25.627c0.238-0.142,0.544-0.063,0.686,0.174c0.141,0.237,0.064,0.544-0.174,0.686l-42.976,25.627
					C187.851,281.941,187.763,281.964,187.676,281.964z"/>
				<path style="fill:#FFFFFF;" d="M194.477,285.77c-0.169,0-0.333-0.085-0.427-0.239c-0.145-0.235-0.07-0.543,0.165-0.688
					l39.557-24.236c0.237-0.145,0.543-0.069,0.688,0.166c0.144,0.235,0.07,0.543-0.165,0.688l-39.557,24.236
					C194.656,285.746,194.565,285.77,194.477,285.77z"/>
				<path style="fill:#FFFFFF;" d="M244.231,256.417c-0.028,0-0.055,0-0.082,0c-2.581-0.016-5.008-0.774-6.835-2.137
					c-1.873-1.396-2.898-3.259-2.886-5.245c0.024-4.038,4.39-7.331,9.808-7.265c2.581,0.015,5.008,0.774,6.835,2.137
					c1.873,1.396,2.898,3.259,2.886,5.245l-0.5-0.003l0.5,0.003c-0.012,1.986-1.059,3.836-2.948,5.21
					C249.185,255.689,246.781,256.417,244.231,256.417z M244.157,242.77c-4.799,0-8.708,2.802-8.729,6.271
					c-0.01,1.66,0.872,3.236,2.484,4.437c1.657,1.236,3.874,1.925,6.243,1.939c2.384-0.007,4.594-0.648,6.266-1.863
					c1.625-1.183,2.526-2.748,2.536-4.408c0.01-1.66-0.872-3.235-2.484-4.438c-1.657-1.236-3.875-1.924-6.243-1.938
					C244.206,242.77,244.181,242.77,244.157,242.77z"/>
			</g>
			<g>
				<path style="fill:#9FBFFF;" d="M293.16,290.311l-22.373-12.709c-1.37-0.779-3.05-0.776-4.418,0.008l-68.712,39.343
					c-2.457,1.407-2.47,4.945-0.023,6.37l37.157,22.652l-3.874-14.58h0l62.283-36.982
					C294.764,293.482,294.742,291.21,293.16,290.311z"/>
				<path style="fill:#FFB54A;" d="M294.12,282.404l-22.405-12.727c-1.37-0.779-3.05-0.776-4.418,0.008l-68.712,39.343
					c-2.457,1.407-2.47,4.945-0.023,6.37l19.841,11.555c0.417,0.243,0.856,0.427,1.302,0.583l-0.021,0.007l16.034,10.506
					l-3.874-14.58l62.314-37.001C295.711,285.548,295.689,283.295,294.12,282.404z"/>
				<path style="fill:#FFFFFF;" d="M224.842,307.448c-0.17,0-0.336-0.087-0.43-0.244c-0.141-0.237-0.063-0.544,0.174-0.686
					l42.977-25.627c0.234-0.141,0.543-0.065,0.685,0.174c0.142,0.237,0.064,0.544-0.174,0.686l-42.977,25.627
					C225.017,307.426,224.929,307.448,224.842,307.448z"/>
				<path style="fill:#FFFFFF;" d="M231.643,311.253c-0.169,0-0.333-0.085-0.427-0.239c-0.145-0.235-0.07-0.543,0.165-0.688
					l39.557-24.235c0.233-0.143,0.543-0.07,0.688,0.166c0.143,0.235,0.07,0.543-0.166,0.688l-39.556,24.235
					C231.822,311.229,231.732,311.253,231.643,311.253z"/>
			</g>
			<g>
				<path style="fill:#9FBFFF;" d="M207.961,235.614l-22.373-12.709c-1.37-0.779-3.05-0.776-4.418,0.007l-68.712,39.343
					c-2.457,1.407-2.47,4.945-0.023,6.37l37.157,22.652l-3.874-14.58h0l62.283-36.982
					C209.566,238.785,209.544,236.513,207.961,235.614z"/>
				<path style="fill:#FFB54A;" d="M208.922,227.707l-22.405-12.727c-1.37-0.778-3.05-0.776-4.418,0.008l-68.712,39.343
					c-2.457,1.407-2.47,4.945-0.023,6.37l19.841,11.555c0.417,0.243,0.856,0.427,1.302,0.583l-0.021,0.007l16.034,10.506
					l-3.874-14.58l62.314-37.001C210.512,230.851,210.491,228.598,208.922,227.707z"/>
				<path style="fill:#FFFFFF;" d="M139.644,252.751c-0.171,0-0.337-0.087-0.43-0.244c-0.141-0.237-0.064-0.544,0.174-0.686
					l42.977-25.627c0.237-0.14,0.544-0.064,0.686,0.174c0.141,0.237,0.064,0.544-0.174,0.686l-42.977,25.627
					C139.819,252.729,139.73,252.751,139.644,252.751z"/>
				<path style="fill:#FFFFFF;" d="M146.445,256.557c-0.168,0-0.333-0.085-0.427-0.239c-0.145-0.235-0.07-0.543,0.165-0.688
					l39.557-24.235c0.236-0.145,0.543-0.07,0.688,0.165c0.145,0.235,0.07,0.543-0.165,0.688l-39.557,24.236
					C146.624,256.533,146.534,256.557,146.445,256.557z"/>
			</g>
		</g>
		<g>
			<g>
				<path style="fill:#9FBFFF;" d="M400.77,288.929l-14.513-7.763l-25.923-14.725c-1.37-0.779-3.05-0.776-4.418,0.008
					l-68.712,39.343c-2.457,1.407-2.47,4.945-0.023,6.37l19.841,11.555c2.361,1.375,5.281,1.362,7.63-0.032l60.428-35.881
					L400.77,288.929z"/>
				<path style="fill:#4E69FF;" d="M402.962,280.089l-14.513-7.763l-25.923-14.725c-1.37-0.778-3.05-0.776-4.418,0.008
					l-68.712,39.343c-2.457,1.407-2.47,4.945-0.023,6.37l19.841,11.555c2.361,1.375,5.281,1.362,7.63-0.032l60.428-35.881
					L402.962,280.089z"/>
				<path style="fill:#FFFFFF;" d="M300.521,299.95c-0.169,0-0.334-0.086-0.429-0.242c-0.142-0.236-0.066-0.544,0.171-0.686
					l35.775-21.552c0.234-0.139,0.543-0.066,0.686,0.171c0.142,0.236,0.065,0.544-0.171,0.686l-35.775,21.552
					C300.699,299.927,300.609,299.95,300.521,299.95z"/>
				<path style="fill:#FFFFFF;" d="M306.85,304.105c-0.17,0-0.336-0.087-0.43-0.244c-0.142-0.237-0.064-0.544,0.174-0.685
					l42.977-25.627c0.234-0.141,0.543-0.065,0.686,0.174c0.142,0.237,0.063,0.544-0.174,0.686l-42.977,25.627
					C307.025,304.083,306.938,304.105,306.85,304.105z"/>
				<path style="fill:#FFFFFF;" d="M313.65,307.911c-0.168,0-0.332-0.085-0.427-0.239c-0.144-0.235-0.07-0.543,0.166-0.688
					l39.557-24.236c0.233-0.142,0.542-0.07,0.688,0.166c0.143,0.235,0.07,0.543-0.166,0.688l-39.557,24.236
					C313.83,307.888,313.74,307.911,313.65,307.911z"/>
				<path style="fill:#FFFFFF;" d="M363.402,278.559c-0.026,0-0.053,0-0.079,0c-2.58-0.016-5.008-0.774-6.835-2.137
					c-1.873-1.397-2.897-3.259-2.886-5.244c0.025-4.018,4.382-7.266,9.73-7.266c0.026,0,0.052,0,0.078,0
					c2.581,0.016,5.008,0.774,6.835,2.137c1.873,1.397,2.897,3.26,2.886,5.245c-0.012,1.985-1.059,3.835-2.947,5.209
					C368.358,277.83,365.953,278.559,363.402,278.559z M363.331,264.912c-4.799,0-8.708,2.803-8.729,6.271
					c-0.01,1.659,0.872,3.235,2.483,4.438c1.657,1.235,3.875,1.924,6.243,1.938c0.024,0,0.049,0,0.074,0
					c2.341,0,4.537-0.66,6.191-1.864c1.626-1.183,2.526-2.747,2.536-4.406l0,0c0.01-1.66-0.872-3.235-2.483-4.438
					c-1.657-1.236-3.874-1.925-6.243-1.938C363.38,264.912,363.355,264.912,363.331,264.912z"/>
			</g>
			<g>
				<path style="fill:#9FBFFF;" d="M312.044,237.782l-14.513-7.763l-25.923-14.725c-1.37-0.778-3.05-0.775-4.418,0.008
					l-68.712,39.343c-2.457,1.407-2.47,4.945-0.023,6.37l19.841,11.555c2.361,1.375,5.281,1.363,7.63-0.032l60.428-35.881
					L312.044,237.782z"/>
				<g>
					<path style="fill:#4E69FF;" d="M269.383,206.461l-68.712,39.343c-2.457,1.407-2.47,4.945-0.023,6.37l19.841,11.555
						c2.361,1.375,5.281,1.362,7.63-0.032l71.605-42.518L273.8,206.453C272.43,205.675,270.75,205.678,269.383,206.461z"/>
					<polygon style="fill:#4E69FF;" points="314.236,228.941 299.723,221.178 288.546,227.815 					"/>
				</g>
				<path style="fill:#FFFFFF;" d="M211.796,248.803c-0.169,0-0.335-0.086-0.429-0.242c-0.143-0.236-0.066-0.543,0.17-0.686
					l35.776-21.552c0.236-0.144,0.543-0.067,0.686,0.17c0.143,0.236,0.066,0.543-0.17,0.686l-35.776,21.552
					C211.973,248.78,211.884,248.803,211.796,248.803z"/>
				<path style="fill:#FFFFFF;" d="M218.124,252.958c-0.17,0-0.336-0.087-0.43-0.244c-0.141-0.237-0.063-0.544,0.174-0.686
					l42.977-25.627c0.233-0.139,0.543-0.064,0.686,0.174c0.142,0.237,0.063,0.544-0.174,0.686l-42.976,25.627
					C218.3,252.936,218.211,252.958,218.124,252.958z"/>
				<path style="fill:#FFFFFF;" d="M224.926,256.764c-0.169,0-0.333-0.085-0.427-0.239c-0.145-0.235-0.07-0.543,0.165-0.688
					l39.557-24.235c0.234-0.143,0.542-0.071,0.688,0.165c0.144,0.235,0.07,0.544-0.166,0.688l-39.556,24.236
					C225.105,256.74,225.015,256.764,224.926,256.764z"/>
				<path style="fill:#FFFFFF;" d="M274.678,227.411c-0.026,0-0.053,0-0.08,0c-2.58-0.015-5.008-0.774-6.835-2.137
					c-1.873-1.396-2.897-3.259-2.886-5.245c0.012-1.986,1.058-3.836,2.948-5.21c1.842-1.34,4.265-2.052,6.859-2.055
					c2.581,0.015,5.009,0.774,6.836,2.137c1.873,1.396,2.898,3.259,2.886,5.245c-0.012,1.986-1.059,3.836-2.948,5.21
					C279.634,226.683,277.229,227.411,274.678,227.411z M274.603,213.765c-2.341,0-4.536,0.66-6.19,1.864
					c-1.626,1.182-2.526,2.748-2.536,4.407c-0.01,1.66,0.872,3.235,2.483,4.438c1.657,1.236,3.875,1.924,6.243,1.938
					c0.024,0,0.05,0,0.075,0c2.341,0.001,4.537-0.66,6.191-1.864c1.625-1.182,2.526-2.748,2.536-4.407
					c0.01-1.66-0.872-3.235-2.483-4.438c-1.658-1.236-3.875-1.924-6.244-1.938C274.654,213.765,274.629,213.765,274.603,213.765z"/>
			</g>
			<g>
				<path style="fill:#9FBFFF;" d="M323.609,261.305l-22.373-12.709c-1.37-0.778-3.05-0.776-4.418,0.008l-68.712,39.343
					c-2.457,1.407-2.47,4.945-0.023,6.37l37.157,22.652l-3.874-14.58l0,0l62.283-36.983
					C325.213,264.476,325.191,262.204,323.609,261.305z"/>
				<path style="fill:#FFB54A;" d="M324.569,253.398l-22.405-12.727c-1.37-0.778-3.05-0.776-4.418,0.008l-68.712,39.343
					c-2.457,1.407-2.47,4.945-0.023,6.37l19.841,11.555c0.417,0.243,0.856,0.427,1.302,0.583l-0.021,0.007l16.034,10.506
					l-3.874-14.58l62.314-37.001C326.16,256.542,326.138,254.289,324.569,253.398z"/>
				<path style="fill:#FFFFFF;" d="M255.29,278.441c-0.17,0-0.336-0.087-0.43-0.244c-0.142-0.237-0.064-0.544,0.174-0.686
					l42.977-25.627c0.234-0.141,0.543-0.064,0.686,0.174c0.142,0.237,0.063,0.544-0.174,0.686l-42.977,25.627
					C255.466,278.419,255.378,278.441,255.29,278.441z"/>
				<path style="fill:#FFFFFF;" d="M262.092,282.247c-0.168,0-0.332-0.085-0.427-0.239c-0.144-0.235-0.07-0.543,0.166-0.688
					l39.557-24.235c0.234-0.142,0.542-0.07,0.688,0.166c0.144,0.235,0.07,0.543-0.166,0.688l-39.557,24.235
					C262.271,282.224,262.182,282.247,262.092,282.247z"/>
			</g>
			<g>
				<path style="fill:#9FBFFF;" d="M238.41,206.608l-22.373-12.709c-1.37-0.778-3.05-0.776-4.418,0.008l-68.712,39.343
					c-2.457,1.407-2.47,4.945-0.023,6.37l37.157,22.651l-3.874-14.58l0,0l62.283-36.982
					C240.015,209.779,239.993,207.507,238.41,206.608z"/>
				<path style="fill:#FFB54A;" d="M239.371,198.701l-22.405-12.727c-1.37-0.778-3.05-0.775-4.418,0.008l-68.712,39.343
					c-2.457,1.407-2.47,4.945-0.023,6.37l19.841,11.555c0.417,0.243,0.856,0.427,1.302,0.583l-0.021,0.007l16.034,10.506
					l-3.874-14.58l62.314-37.001C240.961,201.845,240.939,199.592,239.371,198.701z"/>
				<path style="fill:#FFFFFF;" d="M170.092,223.745c-0.17,0-0.336-0.087-0.43-0.244c-0.141-0.237-0.064-0.544,0.174-0.686
					l42.977-25.627c0.237-0.14,0.544-0.064,0.685,0.174c0.141,0.237,0.064,0.544-0.174,0.686l-42.977,25.627
					C170.268,223.722,170.179,223.745,170.092,223.745z"/>
				<path style="fill:#FFFFFF;" d="M176.894,227.55c-0.169,0-0.333-0.085-0.427-0.239c-0.145-0.235-0.07-0.543,0.165-0.688
					l39.557-24.236c0.237-0.144,0.543-0.07,0.688,0.165c0.144,0.235,0.07,0.543-0.165,0.688l-39.557,24.236
					C177.073,227.526,176.982,227.55,176.894,227.55z"/>
			</g>
		</g>
	</g>
	<g>
		<g style="opacity:0.5;">
			<g>
				<g>
					<g>
						<path style="fill:#9FBFFF;" d="M342.319,165.354l-3.201,0.027c-8.031,0.067-14.595-6.39-14.661-14.42l-0.134-16.232
							c-0.067-8.031,6.39-14.595,14.42-14.661l30.32-0.251c-0.778-0.118-1.57-0.194-2.383-0.187l-31.485,0.261
							c-8.279,0.069-14.934,6.835-14.866,15.114l0.139,16.733c0.069,8.279,6.835,16.024,15.114,15.955l3.845-0.027l12.332,11.573
							l11.561-11.805l0,0l-9.287,9.442L342.319,165.354z"/>
						<path style="fill:#FFFFFF;" d="M351.773,179.938l-12.542-11.771l-3.646,0.026c-4.079,0.02-7.995-1.745-11.007-5.008
							c-2.897-3.137-4.577-7.308-4.611-11.443l-0.139-16.733c-0.034-4.137,1.545-8.041,4.446-10.991
							c2.901-2.95,6.778-4.593,10.916-4.628l31.484-0.261c0.739-0.013,1.561,0.057,2.462,0.193l-0.071,0.994l-30.32,0.252
							c-7.741,0.064-13.988,6.415-13.924,14.157l0.135,16.231c0.063,7.703,6.351,13.925,14.039,13.925c0.04,0,0.078,0,0.118,0
							l3.408-0.029l11.505,11.316l8.936-9.086l0.714,0.7l-0.002,0.002L351.773,179.938z M339.624,167.164l12.12,11.375l1.603-1.637
							l-11.23-11.046l-2.994,0.025c-0.042,0-0.084,0-0.126,0c-8.236,0-14.971-6.665-15.039-14.917l-0.135-16.232
							c-0.054-6.526,4.078-12.13,9.883-14.255c-3.303,0.364-6.355,1.84-8.717,4.241c-2.714,2.76-4.191,6.411-4.159,10.282
							l0.139,16.733c0.032,3.89,1.616,7.816,4.346,10.772c2.793,3.025,6.397,4.687,10.158,4.687c0.035,0,0.07,0,0.106-0.001
							L339.624,167.164z"/>
					</g>
					<g>
						<path style="fill:#9FBFFF;" d="M383.944,134.235c-0.067-8.031-6.631-14.487-14.661-14.42l-0.221,0.002l-30.32,0.251
							c-8.031,0.066-14.487,6.631-14.42,14.661l0.134,16.232c0.067,8.031,6.631,14.487,14.661,14.42l3.201-0.027l11.714,11.521
							l9.287-9.442l2.234-2.271l4.105-0.034c8.031-0.067,14.487-6.631,14.42-14.661L383.944,134.235z"/>
						<path style="fill:#FFFFFF;" d="M354.039,177.583l-11.923-11.727l-2.994,0.025c-0.042,0-0.084,0-0.126,0
							c-8.236,0-14.971-6.665-15.039-14.917l-0.135-16.232c-0.068-8.293,6.623-15.097,14.916-15.165l30.54-0.253
							c0.043,0,0.086,0,0.128,0c3.971,0,7.71,1.53,10.545,4.318c2.864,2.817,4.46,6.582,4.493,10.599l0.135,16.231
							c0.068,8.294-6.623,15.097-14.916,15.166l-3.898,0.032L354.039,177.583z M342.522,164.852l11.505,11.316l11.315-11.505
							l4.313-0.036c7.741-0.064,13.988-6.415,13.924-14.158l-0.135-16.231c-0.031-3.75-1.52-7.264-4.194-9.894
							c-2.646-2.602-6.138-4.031-9.844-4.031c-0.039,0-0.079,0-0.119,0l-30.541,0.253c-7.741,0.064-13.988,6.415-13.924,14.157
							l0.135,16.231c0.063,7.703,6.351,13.925,14.039,13.925c0.04,0,0.078,0,0.118,0L342.522,164.852z"/>
					</g>
				</g>
				<g>
					<path style="fill:#9FBFFF;" d="M343.034,145.214c-0.869,1.912-3.123,2.757-5.035,1.888c-1.912-0.869-2.757-3.123-1.889-5.035
						c0.869-1.912,3.123-2.757,5.035-1.889C343.057,141.048,343.903,143.302,343.034,145.214z"/>
					<path style="fill:#FFFFFF;" d="M339.565,147.943c-0.595,0-1.198-0.124-1.773-0.385c-2.159-0.982-3.117-3.538-2.136-5.697
						c0.475-1.046,1.329-1.845,2.405-2.248c1.075-0.403,2.244-0.364,3.291,0.111c2.159,0.981,3.118,3.536,2.137,5.696v0.001
						C342.77,147.005,341.202,147.943,339.565,147.943z M339.574,140.337c-0.392,0-0.784,0.07-1.162,0.212
						c-0.825,0.31-1.48,0.923-1.846,1.726c-0.753,1.658-0.018,3.619,1.64,4.373c1.657,0.754,3.62,0.017,4.373-1.64l0,0
						c0.753-1.658,0.017-3.62-1.641-4.373C340.503,140.436,340.039,140.337,339.574,140.337z M343.034,145.214h0.01H343.034z"/>
				</g>
				<g>
					<path style="fill:#9FBFFF;" d="M357.581,144.797c-0.869,1.912-3.123,2.757-5.035,1.889c-1.912-0.869-2.757-3.123-1.888-5.035
						c0.869-1.912,3.123-2.757,5.034-1.889C357.604,140.632,358.45,142.886,357.581,144.797z"/>
					<path style="fill:#FFFFFF;" d="M354.113,147.526c-0.595,0-1.198-0.124-1.773-0.385c-1.046-0.475-1.845-1.33-2.248-2.406
						c-0.404-1.076-0.364-2.245,0.111-3.291c0.475-1.046,1.329-1.844,2.405-2.248c1.076-0.403,2.244-0.365,3.291,0.111
						c1.046,0.476,1.845,1.33,2.248,2.406c0.404,1.076,0.364,2.245-0.111,3.291C357.316,146.588,355.749,147.526,354.113,147.526z
						 M354.121,139.92c-0.392,0-0.783,0.07-1.161,0.212c-0.826,0.31-1.482,0.922-1.847,1.725c-0.365,0.803-0.396,1.7-0.086,2.526
						c0.311,0.826,0.923,1.481,1.727,1.847c1.657,0.753,3.619,0.018,4.372-1.641c0.365-0.803,0.395-1.7,0.086-2.525
						c-0.31-0.826-0.923-1.482-1.727-1.847C355.05,140.02,354.586,139.92,354.121,139.92z"/>
				</g>
				<g>
					<path style="fill:#9FBFFF;" d="M371.778,144.391c-0.869,1.912-3.123,2.757-5.034,1.889c-1.912-0.869-2.757-3.123-1.889-5.035
						c0.869-1.912,3.123-2.757,5.035-1.888C371.801,140.225,372.646,142.479,371.778,144.391z"/>
					<path style="fill:#FFFFFF;" d="M368.314,147.123c-0.606,0-1.21-0.129-1.778-0.388c-1.046-0.476-1.845-1.33-2.248-2.406
						c-0.404-1.076-0.364-2.245,0.111-3.291c0.982-2.16,3.54-3.117,5.696-2.137c1.046,0.475,1.845,1.33,2.248,2.406
						c0.404,1.076,0.364,2.245-0.111,3.291l0,0c-0.475,1.046-1.329,1.845-2.405,2.249
						C369.336,147.031,368.824,147.123,368.314,147.123z M368.321,139.516c-1.256,0-2.459,0.72-3.012,1.936
						c-0.365,0.803-0.396,1.7-0.086,2.525c0.311,0.826,0.923,1.482,1.727,1.847c0.802,0.363,1.699,0.394,2.526,0.085
						c0.825-0.31,1.48-0.923,1.846-1.726v-0.001c0.365-0.803,0.395-1.7,0.086-2.526c-0.311-0.826-0.923-1.481-1.727-1.847
						C369.24,139.611,368.777,139.516,368.321,139.516z"/>
				</g>
			</g>
		</g>
		<g>
			<g>
				<path style="fill:#C12736;" d="M300.913,187.446l-2.581,0.021c-6.473,0.054-11.764-5.15-11.818-11.624l-0.108-13.084
					c-0.054-6.473,5.151-11.764,11.624-11.818l24.44-0.202c-0.627-0.095-1.266-0.156-1.921-0.151l-25.379,0.21
					c-6.673,0.055-12.038,5.51-11.983,12.183l0.112,13.488c0.055,6.673,5.51,12.916,12.183,12.861l3.099-0.022l9.94,9.328
					l9.319-9.516l0,0l-7.486,7.611L300.913,187.446z"/>
				<path style="fill:#F13C45;" d="M334.465,162.362c-0.054-6.473-5.345-11.677-11.818-11.624l-0.177,0.002l-24.44,0.202
					c-6.473,0.054-11.677,5.345-11.624,11.818l0.108,13.084c0.054,6.473,5.345,11.677,11.818,11.624l2.581-0.021l9.442,9.287
					l7.486-7.611l1.801-1.831l3.309-0.028c6.473-0.054,11.677-5.345,11.624-11.818L334.465,162.362z"/>
			</g>
			<path style="fill:#FFFFFF;" d="M310.31,181.483c-0.117,0-0.191-0.061-0.277-0.132c-2.612-2.146-5.16-4.462-7.624-6.702
				l-0.452-0.411c-2.126-1.931-4.536-4.589-4.301-8.033c0.245-3.575,3.116-6.268,6.68-6.268c0.003,0,0.006,0,0.009,0
				c2.475,0.003,4.749,1.37,5.955,3.494c1.209-2.119,3.484-3.48,5.957-3.48c0.003,0,0.005,0,0.008,0
				c2.741,0.003,5.291,1.706,6.344,4.238c0.357,0.86,0.525,1.755,0.499,2.661c-0.094,3.245-2.507,5.718-4.761,7.781l-0.333,0.307
				C312.022,180.455,310.793,181.483,310.31,181.483z M304.335,160.936c-3.081,0-5.47,2.243-5.682,5.336
				c-0.206,3.016,2.016,5.445,3.975,7.225l0.453,0.412c2.373,2.157,4.823,4.384,7.327,6.456c0.544-0.403,2.181-1.792,6.927-6.164
				l0.335-0.309c2.2-2.013,4.354-4.217,4.436-7.073l0,0c0.022-0.763-0.12-1.519-0.423-2.248c-0.899-2.164-3.078-3.619-5.422-3.622
				c-0.002,0-0.004,0-0.006,0c-2.43,0-4.635,1.54-5.489,3.834l-0.47,1.261l-0.468-1.262c-0.852-2.298-3.057-3.844-5.487-3.846
				C304.34,160.936,304.337,160.936,304.335,160.936z"/>
		</g>
		<g>
			<g>
				<path style="fill:#3A5CE8;" d="M342.319,226.539l-3.201,0.027c-8.031,0.066-14.595-6.39-14.661-14.42l-0.135-16.232
					c-0.067-8.031,6.39-14.595,14.42-14.661l30.32-0.251c-0.778-0.118-1.57-0.194-2.383-0.187l-31.485,0.261
					c-8.279,0.069-14.934,6.836-14.866,15.114l0.139,16.733c0.069,8.279,6.835,16.024,15.114,15.955l3.845-0.027l12.332,11.573
					l11.561-11.805l0,0l-9.287,9.442L342.319,226.539z"/>
				<path style="fill:#4E69FF;" d="M383.944,195.42c-0.067-8.031-6.631-14.487-14.661-14.42l-0.221,0.002l-30.32,0.251
					c-8.031,0.067-14.487,6.631-14.42,14.661l0.135,16.232c0.066,8.031,6.631,14.487,14.661,14.42l3.201-0.027l11.714,11.521
					l9.287-9.442l2.234-2.271l4.105-0.034c8.031-0.067,14.487-6.631,14.42-14.661L383.944,195.42z"/>
			</g>
			<path style="fill:#FFFFFF;" d="M375.529,197.006h-41.177c-0.276,0-0.5-0.224-0.5-0.5c0-0.276,0.224-0.5,0.5-0.5h41.177
				c0.276,0,0.5,0.224,0.5,0.5C376.029,196.783,375.806,197.006,375.529,197.006z"/>
			<path style="fill:#FFFFFF;" d="M375.529,212.712h-41.177c-0.276,0-0.5-0.224-0.5-0.5s0.224-0.5,0.5-0.5h41.177
				c0.276,0,0.5,0.224,0.5,0.5S375.806,212.712,375.529,212.712z"/>
			<path style="fill:#FFFFFF;" d="M354.2,204.947h-19.848c-0.276,0-0.5-0.224-0.5-0.5c0-0.276,0.224-0.5,0.5-0.5H354.2
				c0.276,0,0.5,0.224,0.5,0.5C354.7,204.724,354.477,204.947,354.2,204.947z"/>
			<path style="fill:#FFFFFF;" d="M375.529,204.947h-16c-0.276,0-0.5-0.224-0.5-0.5c0-0.276,0.224-0.5,0.5-0.5h16
				c0.276,0,0.5,0.224,0.5,0.5C376.029,204.724,375.806,204.947,375.529,204.947z"/>
		</g>
	</g>
	<g>
		<g style="opacity:0.43;">
			<g>
				<g>
					<g>
						<g>
							<path style="fill:#FFFFFF;" d="M154.195,138.29l-5.98,0.049c-15,0.124-27.261-11.935-27.385-26.935l-0.251-30.318
								c-0.124-15,11.935-27.261,26.935-27.385l56.809-0.471c-1.506-0.237-3.05-0.361-4.625-0.348l-58.81,0.487
								c-15.464,0.128-27.896,12.768-27.767,28.232l0.259,31.255c0.128,15.464,12.768,29.931,28.232,29.803l7.182-0.051
								l23.034,21.616l21.594-22.05l0,0l-17.347,17.637L154.195,138.29z"/>
							<path style="fill:#9FBFFF;" d="M171.842,164.923l-23.245-21.814l-6.982,0.049c-0.066,0.001-0.134,0.001-0.2,0.001
								c-15.09,0-28.401-14.105-28.535-30.299l-0.259-31.256c-0.063-7.612,2.842-14.794,8.18-20.221
								c5.338-5.427,12.471-8.451,20.083-8.514l58.809-0.487c1.537-0.014,3.132,0.106,4.706,0.354l-0.074,0.994L147.518,54.2
								c-7.121,0.059-13.793,2.888-18.787,7.965c-4.994,5.077-7.712,11.795-7.652,18.916l0.251,30.319
								c0.122,14.625,12.06,26.44,26.658,26.44c0.075,0,0.148-0.001,0.224-0.001l6.187-0.052l21.67,21.315l16.996-17.28l0.714,0.7
								L171.842,164.923z M148.99,142.106l22.823,21.417l3.594-3.67l-21.414-21.063l-5.772,0.048c-0.078,0-0.155,0.001-0.232,0.001
								c-15.147,0-27.532-12.258-27.658-27.432l-0.251-30.319c-0.062-7.388,2.758-14.358,7.939-19.625
								c3.788-3.852,8.507-6.456,13.658-7.602l-0.784,0.006c-7.345,0.061-14.227,2.979-19.378,8.215s-7.954,12.167-7.893,19.512
								l0.259,31.256c0.13,15.664,12.974,29.308,27.535,29.308c0.064,0,0.128,0,0.193-0.001L148.99,142.106z"/>
						</g>
						<g>
							<path style="fill:#FFFFFF;" d="M231.946,80.163c-0.124-15-12.385-27.06-27.385-26.935l-0.238,0.002L147.514,53.7
								c-15,0.124-27.06,12.385-26.935,27.385l0.251,30.318c0.124,15,12.385,27.06,27.385,26.935l5.98-0.049l21.879,21.52
								l17.347-17.637l4.173-4.243l7.667-0.064c15-0.124,27.059-12.385,26.935-27.385L231.946,80.163z"/>
							<path style="fill:#9FBFFF;" d="M176.081,160.517l-22.088-21.726l-5.772,0.048c-0.078,0-0.155,0.001-0.232,0.001
								c-15.147,0.001-27.532-12.258-27.658-27.432l-0.251-30.319c-0.062-7.388,2.758-14.358,7.939-19.625
								c5.181-5.268,12.103-8.203,19.492-8.264l57.047-0.473c7.397-0.02,14.358,2.759,19.626,7.939
								c5.268,5.181,8.203,12.103,8.264,19.492l0.252,30.319c0.126,15.251-12.18,27.763-27.432,27.889l-7.46,0.062L176.081,160.517z
								 M154.398,137.788l21.67,21.315l21.314-21.67l7.875-0.065c14.7-0.122,26.561-12.181,26.439-26.881l-0.252-30.319
								c-0.059-7.121-2.888-13.793-7.965-18.787c-5.077-4.994-11.776-7.707-18.917-7.652L147.518,54.2
								c-7.121,0.059-13.793,2.888-18.787,7.965c-4.994,5.077-7.712,11.795-7.652,18.916l0.251,30.318
								c0.122,14.625,12.06,26.44,26.658,26.44c0.075,0,0.148-0.001,0.224-0.001L154.398,137.788z"/>
						</g>
					</g>
				</g>
				<g>
					<path style="fill:#FFFFFF;" d="M155.53,100.67c-1.623,3.571-5.833,5.15-9.404,3.528c-3.571-1.623-5.15-5.833-3.528-9.404
						c1.623-3.571,5.833-5.15,9.404-3.528C155.574,92.889,157.153,97.099,155.53,100.67z"/>
					<path style="fill:#9FBFFF;" d="M149.053,105.334c-1.05,0-2.117-0.218-3.134-0.681c-3.816-1.734-5.51-6.25-3.776-10.066
						c1.734-3.815,6.25-5.51,10.066-3.775c1.849,0.84,3.259,2.35,3.973,4.251c0.713,1.901,0.644,3.966-0.197,5.815
						C154.713,103.676,151.944,105.334,149.053,105.334z M149.074,91.13c-2.511,0-4.915,1.439-6.02,3.87
						c-1.506,3.314-0.035,7.236,3.28,8.742c1.605,0.73,3.399,0.79,5.05,0.17c1.651-0.619,2.962-1.845,3.692-3.45
						c0.729-1.605,0.79-3.399,0.171-5.05c-0.62-1.651-1.845-2.962-3.451-3.692C150.913,91.32,149.986,91.13,149.074,91.13z"/>
				</g>
				<g>
					<path style="fill:#FFFFFF;" d="M182.702,99.892c-1.623,3.571-5.833,5.15-9.404,3.528c-3.571-1.623-5.15-5.833-3.527-9.404
						c1.623-3.571,5.833-5.15,9.404-3.528C182.746,92.111,184.325,96.321,182.702,99.892z"/>
					<path style="fill:#9FBFFF;" d="M176.233,104.56c-1.07,0-2.138-0.229-3.142-0.685c-3.816-1.734-5.51-6.25-3.775-10.066
						c0.84-1.848,2.35-3.259,4.251-3.972c1.901-0.713,3.967-0.643,5.815,0.197c1.849,0.84,3.259,2.35,3.973,4.251
						c0.713,1.901,0.643,3.966-0.197,5.815c-0.84,1.849-2.35,3.259-4.251,3.973C178.038,104.398,177.134,104.56,176.233,104.56z
						 M176.246,90.352c-2.511,0-4.915,1.439-6.02,3.871c-1.506,3.314-0.035,7.236,3.279,8.742c1.605,0.729,3.399,0.79,5.05,0.171
						c1.651-0.62,2.962-1.845,3.692-3.451l0,0c0.73-1.605,0.791-3.399,0.171-5.05c-0.619-1.651-1.845-2.962-3.45-3.692
						C178.085,90.543,177.158,90.352,176.246,90.352z"/>
				</g>
				<g>
					<path style="fill:#FFFFFF;" d="M209.22,99.133c-1.623,3.571-5.833,5.15-9.404,3.527c-3.571-1.623-5.15-5.833-3.528-9.404
						c1.623-3.571,5.833-5.15,9.404-3.528C209.263,91.352,210.842,95.562,209.22,99.133z"/>
					<path style="fill:#9FBFFF;" d="M202.743,103.796c-1.05,0-2.117-0.218-3.134-0.681c-1.849-0.84-3.259-2.35-3.973-4.251
						c-0.713-1.901-0.644-3.966,0.197-5.815c1.734-3.815,6.251-5.51,10.066-3.776c3.815,1.734,5.509,6.25,3.775,10.066l0,0
						C208.403,102.139,205.634,103.796,202.743,103.796z M202.765,89.593c-2.512,0-4.916,1.439-6.021,3.871
						c-0.73,1.605-0.79,3.399-0.171,5.05c0.62,1.651,1.845,2.962,3.451,3.692c3.315,1.505,7.236,0.035,8.742-3.279l0,0
						c1.506-3.314,0.035-7.236-3.279-8.742C204.602,89.783,203.676,89.593,202.765,89.593z M209.22,99.133h0.01H209.22z"/>
				</g>
			</g>
			<g>
				<g>
					<g>
						<path style="fill:#FFFFFF;" d="M226.318,146.229l-3.011,0.025c-7.552,0.063-13.725-6.009-13.788-13.561l-0.126-15.265
							c-0.063-7.552,6.009-13.725,13.561-13.788l28.514-0.236c-0.732-0.111-1.477-0.182-2.241-0.176l-29.609,0.245
							c-7.786,0.064-14.045,6.428-13.98,14.214l0.13,15.736c0.064,7.786,6.428,15.069,14.214,15.005l3.616-0.026l11.597,10.883
							l10.872-11.102v0l-8.734,8.88L226.318,146.229z"/>
						<path style="fill:#9FBFFF;" d="M235.21,159.986l-11.808-11.081l-3.416,0.024c-3.882,0.033-7.534-1.645-10.373-4.72
							c-2.729-2.955-4.312-6.885-4.344-10.781l-0.13-15.736c-0.066-8.049,6.427-14.651,14.477-14.718l29.609-0.246
							c0.708-0.005,1.472,0.054,2.32,0.182l-0.071,0.994l-28.514,0.236c-3.519,0.029-6.816,1.427-9.284,3.936
							c-2.468,2.509-3.811,5.829-3.782,9.348l0.126,15.265c0.029,3.519,1.427,6.816,3.936,9.284
							c2.509,2.467,5.826,3.818,9.348,3.781l3.218-0.026l10.807,10.629l8.383-8.523l0.714,0.7l-0.002,0.002L235.21,159.986z
							 M223.794,147.901l11.386,10.685l1.466-1.497l-10.532-10.359l-2.804,0.023c-0.04,0-0.08,0-0.121,0
							c-3.741,0-7.266-1.442-9.937-4.069c-2.7-2.655-4.204-6.203-4.235-9.989l-0.126-15.265c-0.031-3.786,1.414-7.357,4.069-10.057
							c1.434-1.458,3.129-2.567,4.981-3.284c-6.701,0.886-11.862,6.664-11.805,13.593l0.13,15.736
							c0.03,3.65,1.517,7.336,4.079,10.111c2.645,2.866,6.035,4.439,9.631,4.398L223.794,147.901z"/>
					</g>
					<g>
						<path style="fill:#FFFFFF;" d="M265.463,116.964c-0.063-7.552-6.236-13.624-13.788-13.561l-0.208,0.002l-28.514,0.236
							c-7.552,0.063-13.624,6.236-13.561,13.788l0.126,15.265c0.063,7.552,6.236,13.624,13.788,13.561l3.011-0.025l11.016,10.835
							l8.734-8.88l2.101-2.136l3.86-0.032c7.552-0.063,13.624-6.236,13.561-13.788L265.463,116.964z"/>
						<path style="fill:#9FBFFF;" d="M237.339,157.771l-11.225-11.04l-2.804,0.023c-3.781,0.046-7.358-1.414-10.057-4.068
							c-2.7-2.655-4.204-6.203-4.235-9.989l-0.126-15.265c-0.031-3.786,1.414-7.357,4.069-10.057
							c2.655-2.699,6.202-4.203,9.989-4.234l28.721-0.238c3.788-0.077,7.358,1.414,10.058,4.069
							c2.699,2.655,4.203,6.203,4.234,9.989v0l0.127,15.265c0.031,3.786-1.414,7.358-4.068,10.057
							c-2.655,2.7-6.203,4.204-9.989,4.235l-3.652,0.03L237.339,157.771z M226.521,145.727l10.807,10.629l10.629-10.807l4.067-0.034
							c3.519-0.029,6.816-1.427,9.284-3.936c2.468-2.509,3.81-5.829,3.781-9.348l-0.127-15.265
							c-0.029-3.519-1.427-6.816-3.936-9.284c-2.482-2.441-5.759-3.782-9.235-3.782c-0.037,0-0.074,0-0.112,0l-28.722,0.238
							c-3.519,0.029-6.816,1.427-9.284,3.936c-2.468,2.509-3.811,5.829-3.782,9.348l0.126,15.265
							c0.029,3.519,1.427,6.816,3.936,9.284c2.509,2.467,5.826,3.818,9.348,3.781L226.521,145.727z"/>
					</g>
				</g>
				<g>
					<g>
						<path style="fill:#FFFFFF;" d="M237.25,139.544c-1.865,0-3.614-0.271-5.249-0.811c-1.634-0.541-3.055-1.37-4.264-2.486
							c-1.208-1.117-2.158-2.526-2.848-4.23c-0.691-1.703-1.036-3.729-1.036-6.077c0-2.279,0.34-4.304,1.019-6.077
							c0.678-1.772,1.645-3.263,2.9-4.472c1.254-1.209,2.757-2.129,4.506-2.762c1.749-0.633,3.695-0.949,5.836-0.949
							c2.21,0,4.127,0.293,5.75,0.88c1.623,0.587,2.975,1.428,4.057,2.521c1.082,1.094,1.887,2.429,2.417,4.006
							c0.529,1.577,0.794,3.344,0.794,5.3c0,2.762-0.576,4.921-1.726,6.474c-1.152,1.554-2.855,2.331-5.111,2.331
							c-0.599,0-1.122-0.086-1.571-0.259c-0.449-0.173-0.829-0.397-1.14-0.673c-0.311-0.276-0.547-0.581-0.708-0.915
							c-0.161-0.333-0.265-0.673-0.311-1.019h-0.138c-0.599,0.898-1.381,1.571-2.348,2.02c-0.967,0.449-1.968,0.674-3.004,0.674
							c-1.566,0-2.762-0.558-3.591-1.675c-0.829-1.116-1.243-2.607-1.243-4.472c0-1.289,0.195-2.48,0.587-3.574
							c0.391-1.093,0.95-2.037,1.675-2.831c0.725-0.794,1.611-1.41,2.659-1.848c1.047-0.437,2.215-0.656,3.505-0.656
							c0.829,0,1.732,0.115,2.71,0.345c0.591,0.139,1.192,0.316,1.804,0.531c0.704,0.247,1.121,0.979,0.981,1.712l-1.11,5.837
							c-0.047,0.299-0.093,0.604-0.138,0.915c-0.047,0.311-0.069,0.604-0.069,0.88c0,0.53,0.121,0.962,0.363,1.295
							c0.242,0.334,0.673,0.501,1.295,0.501c0.874,0,1.559-0.495,2.054-1.485c0.495-0.99,0.743-2.359,0.743-4.109
							c0-2.854-0.749-5.087-2.245-6.699c-1.497-1.611-3.81-2.417-6.941-2.417c-1.566,0-2.993,0.236-4.281,0.708
							c-1.29,0.472-2.389,1.163-3.298,2.072c-0.91,0.91-1.611,2.026-2.106,3.349c-0.495,1.324-0.742,2.838-0.742,4.541
							c0,1.75,0.247,3.258,0.742,4.523c0.495,1.266,1.174,2.314,2.037,3.142c0.863,0.829,1.876,1.438,3.039,1.83
							c1.162,0.391,2.411,0.587,3.746,0.587c0.92,0,1.974-0.121,3.159-0.363c0.765-0.156,1.556-0.343,2.373-0.561
							c0.773-0.206,1.576,0.224,1.826,0.984l0.16,0.485c0.271,0.821-0.201,1.708-1.035,1.934c-0.948,0.257-1.866,0.472-2.754,0.645
							C239.62,139.411,238.377,139.544,237.25,139.544z M235.972,129.772c0.805,0,1.559-0.316,2.262-0.95
							c0.702-0.633,1.18-1.64,1.433-3.021l0.52-2.919c0.161-0.906-0.516-1.775-1.436-1.777c-0.006,0-0.011,0-0.017,0
							c-0.69,0-1.324,0.144-1.899,0.432c-0.576,0.288-1.07,0.691-1.485,1.209c-0.414,0.518-0.737,1.128-0.967,1.83
							c-0.23,0.702-0.345,1.467-0.345,2.296c0,0.852,0.149,1.549,0.449,2.089C234.786,129.502,235.282,129.772,235.972,129.772z"/>
						<path style="fill:#9FBFFF;" d="M237.25,140.044c-1.908,0-3.727-0.282-5.406-0.837c-1.694-0.561-3.19-1.433-4.446-2.594
							c-1.258-1.163-2.258-2.646-2.973-4.409c-0.712-1.755-1.073-3.863-1.073-6.265c0-2.33,0.354-4.435,1.052-6.256
							c0.702-1.833,1.717-3.398,3.02-4.653c1.297-1.251,2.873-2.217,4.683-2.873c1.796-0.649,3.817-0.979,6.006-0.979
							c2.258,0,4.25,0.306,5.919,0.91c1.684,0.609,3.112,1.497,4.243,2.639c1.131,1.144,1.984,2.557,2.536,4.199
							c0.544,1.622,0.82,3.459,0.82,5.46c0,2.859-0.614,5.137-1.825,6.772c-1.246,1.681-3.101,2.533-5.512,2.533
							c-0.657,0-1.246-0.098-1.75-0.292c-0.503-0.194-0.938-0.452-1.292-0.767c-0.359-0.319-0.637-0.68-0.826-1.072
							c-0.042-0.087-0.081-0.175-0.116-0.263c-0.563,0.636-1.239,1.139-2.02,1.501c-1.028,0.478-2.109,0.72-3.215,0.72
							c-1.726,0-3.069-0.631-3.993-1.877c-0.89-1.199-1.341-2.803-1.341-4.769c0-1.343,0.208-2.602,0.616-3.743
							c0.412-1.15,1.009-2.159,1.776-3c0.771-0.845,1.725-1.508,2.835-1.972c1.811-0.755,3.918-0.948,6.522-0.336
							c0.607,0.143,1.232,0.327,1.855,0.546c0.93,0.326,1.492,1.306,1.307,2.278l-1.245,6.731c-0.043,0.286-0.064,0.554-0.064,0.808
							c0,0.419,0.09,0.756,0.268,1.001c0.141,0.196,0.44,0.294,0.89,0.294c0.674,0,1.2-0.396,1.607-1.209
							c0.458-0.915,0.69-2.222,0.69-3.885c0-2.71-0.71-4.85-2.111-6.358c-1.392-1.498-3.604-2.258-6.574-2.258
							c-1.499,0-2.881,0.228-4.109,0.678c-1.215,0.444-2.264,1.103-3.117,1.955c-0.854,0.854-1.523,1.92-1.991,3.171
							c-0.471,1.261-0.71,2.729-0.71,4.366c0,1.68,0.238,3.141,0.708,4.341c0.466,1.192,1.111,2.189,1.917,2.963
							c0.805,0.773,1.764,1.35,2.853,1.717c1.105,0.372,2.312,0.561,3.587,0.561c0.882,0,1.911-0.119,3.059-0.353
							c0.744-0.152,1.533-0.338,2.344-0.554c1.03-0.273,2.097,0.3,2.43,1.311l0.16,0.485c0.173,0.523,0.122,1.102-0.14,1.587
							c-0.264,0.49-0.704,0.84-1.239,0.985c-0.958,0.26-1.897,0.479-2.79,0.653C239.689,139.907,238.403,140.044,237.25,140.044z
							 M238.113,112.178c-2.073,0-3.979,0.31-5.665,0.92c-1.677,0.607-3.133,1.5-4.329,2.652c-1.196,1.152-2.131,2.595-2.78,4.29
							c-0.654,1.707-0.986,3.692-0.986,5.899c0,2.273,0.336,4.254,0.999,5.889c0.659,1.626,1.575,2.989,2.725,4.051
							c1.151,1.063,2.524,1.863,4.082,2.379c1.577,0.521,3.29,0.786,5.092,0.786c1.089,0,2.311-0.131,3.633-0.388
							c0.869-0.17,1.784-0.383,2.719-0.637c0.268-0.073,0.488-0.248,0.621-0.495c0.134-0.249,0.159-0.533,0.071-0.8l-0.16-0.485
							c-0.168-0.508-0.706-0.799-1.223-0.658c-0.831,0.222-1.639,0.413-2.402,0.568c-1.213,0.248-2.31,0.373-3.259,0.373
							c-1.384,0-2.698-0.207-3.906-0.614c-1.229-0.414-2.314-1.067-3.226-1.943c-0.912-0.876-1.637-1.993-2.157-3.321
							c-0.515-1.317-0.776-2.9-0.776-4.705c0-1.756,0.26-3.343,0.774-4.716c0.518-1.385,1.266-2.572,2.221-3.527
							c0.956-0.956,2.127-1.693,3.48-2.188c1.339-0.49,2.837-0.738,4.453-0.738c3.26,0,5.718,0.867,7.307,2.577
							c1.578,1.7,2.378,4.068,2.378,7.039c0,1.82-0.268,3.277-0.795,4.333c-0.728,1.455-1.762,1.761-2.501,1.761
							c-0.789,0-1.36-0.238-1.7-0.708c-0.304-0.419-0.458-0.953-0.458-1.588c0-0.301,0.025-0.622,0.075-0.955l0.139-0.918
							l1.113-5.854c0.093-0.49-0.189-0.983-0.655-1.147c-0.591-0.208-1.181-0.381-1.753-0.516c-2.397-0.563-4.294-0.388-5.908,0.286
							c-0.974,0.407-1.81,0.986-2.482,1.723c-0.677,0.742-1.206,1.638-1.573,2.663c-0.37,1.032-0.558,2.178-0.558,3.405
							c0,1.747,0.385,3.151,1.144,4.174c0.735,0.991,1.779,1.473,3.19,1.473c0.958,0,1.898-0.211,2.794-0.627
							c0.877-0.407,1.598-1.027,2.142-1.844l0.148-0.223h0.844l0.058,0.434c0.039,0.292,0.128,0.583,0.265,0.866
							c0.132,0.273,0.33,0.528,0.59,0.759c0.265,0.235,0.597,0.431,0.988,0.581c0.389,0.15,0.857,0.226,1.391,0.226
							c2.107,0,3.647-0.696,4.709-2.129c1.081-1.458,1.628-3.537,1.628-6.176c0-1.892-0.259-3.622-0.769-5.141
							c-0.502-1.497-1.275-2.779-2.298-3.813c-1.026-1.036-2.329-1.844-3.872-2.402
							C242.132,112.464,240.255,112.178,238.113,112.178z M235.972,130.272c-0.871,0-1.536-0.37-1.922-1.07
							c-0.339-0.611-0.511-1.396-0.511-2.331c0-0.878,0.124-1.704,0.37-2.452c0.247-0.754,0.6-1.423,1.051-1.987
							c0.458-0.572,1.014-1.024,1.652-1.344c0.643-0.321,1.357-0.484,2.123-0.484c0.59,0.001,1.131,0.258,1.503,0.704
							c0.387,0.463,0.548,1.068,0.442,1.661l-0.52,2.919c-0.273,1.489-0.808,2.6-1.59,3.305
							C237.775,129.909,236.901,130.272,235.972,130.272z M238.75,121.605c-0.625,0-1.189,0.127-1.691,0.378
							c-0.507,0.254-0.951,0.615-1.318,1.074c-0.376,0.47-0.673,1.033-0.882,1.673c-0.212,0.648-0.32,1.368-0.32,2.141
							c0,0.764,0.13,1.385,0.386,1.847c0.209,0.378,0.542,0.554,1.048,0.554c0.684,0,1.314-0.269,1.927-0.821
							c0.615-0.554,1.044-1.476,1.276-2.74l0.52-2.917c0.054-0.301-0.028-0.609-0.225-0.845
							C239.286,121.728,239.03,121.606,238.75,121.605z"/>
					</g>
				</g>
			</g>
		</g>
		<g>
			<g>
				<g>
					<path style="fill:#3A5CE8;" d="M115.28,158.506l-5.98,0.05c-15,0.124-27.261-11.935-27.385-26.935l-0.251-30.319
						c-0.124-15,11.935-27.261,26.935-27.385l56.809-0.471c-1.506-0.238-3.05-0.361-4.625-0.348l-58.809,0.487
						c-15.464,0.128-27.896,12.768-27.767,28.232l0.259,31.255c0.128,15.464,12.768,29.931,28.231,29.803l7.183-0.051l23.034,21.616
						l21.594-22.05l0,0l-17.347,17.637L115.28,158.506z"/>
					<path style="fill:#4E69FF;" d="M193.03,100.379c-0.124-15-12.385-27.06-27.385-26.935l-0.238,0.002l-56.809,0.471
						c-15,0.124-27.06,12.385-26.935,27.385l0.251,30.319c0.124,15,12.385,27.059,27.385,26.935l5.98-0.05l21.879,21.52
						l17.347-17.637l4.173-4.243l7.667-0.064c15-0.124,27.06-12.385,26.935-27.385L193.03,100.379z"/>
				</g>
				<path style="fill:#FFFFFF;" d="M110.145,125.554c-1.07,0-2.138-0.229-3.142-0.685c-3.816-1.734-5.51-6.25-3.775-10.066
					c0.84-1.849,2.35-3.259,4.251-3.973c1.9-0.714,3.966-0.644,5.815,0.197c1.849,0.84,3.259,2.35,3.973,4.251
					c0.713,1.901,0.643,3.966-0.197,5.815c-0.84,1.849-2.35,3.259-4.251,3.973C111.95,125.392,111.047,125.554,110.145,125.554z
					 M110.152,111.343c-0.783,0-1.567,0.141-2.322,0.424c-1.651,0.62-2.962,1.845-3.692,3.451c-1.506,3.313-0.035,7.235,3.279,8.742
					c1.605,0.73,3.398,0.789,5.05,0.171c1.651-0.62,2.962-1.845,3.692-3.451l0,0c0.73-1.605,0.791-3.399,0.171-5.05
					c-0.619-1.651-1.845-2.962-3.45-3.692C112.009,111.541,111.082,111.343,110.152,111.343z"/>
				<path style="fill:#FFFFFF;" d="M137.31,124.772c-1.05,0-2.117-0.218-3.134-0.681c-3.816-1.734-5.51-6.25-3.775-10.066
					c0.84-1.849,2.35-3.259,4.251-3.973c1.9-0.713,3.966-0.643,5.815,0.197c3.816,1.734,5.51,6.25,3.776,10.066l0,0
					C142.97,123.115,140.201,124.772,137.31,124.772z M137.324,110.565c-0.783,0-1.567,0.141-2.322,0.424
					c-1.651,0.62-2.962,1.845-3.692,3.451c-1.506,3.314-0.035,7.236,3.279,8.742c3.314,1.506,7.236,0.035,8.742-3.279
					c1.505-3.314,0.034-7.236-3.28-8.742C139.181,110.764,138.254,110.565,137.324,110.565z"/>
				<path style="fill:#FFFFFF;" d="M163.835,124.018c-1.07,0-2.138-0.229-3.142-0.686c-1.849-0.84-3.259-2.35-3.973-4.251
					c-0.713-1.901-0.643-3.966,0.197-5.815c0.84-1.849,2.35-3.259,4.251-3.973c1.9-0.712,3.966-0.644,5.815,0.197
					c1.849,0.84,3.259,2.35,3.973,4.251c0.713,1.901,0.643,3.966-0.197,5.815c-0.84,1.849-2.35,3.259-4.251,3.973
					C165.64,123.855,164.736,124.018,163.835,124.018z M163.842,109.806c-0.783,0-1.567,0.141-2.322,0.424
					c-1.651,0.619-2.962,1.845-3.692,3.45c-0.73,1.605-0.79,3.399-0.171,5.05c0.619,1.651,1.845,2.962,3.45,3.692
					c1.607,0.729,3.399,0.79,5.05,0.171c1.651-0.619,2.962-1.845,3.692-3.45l0,0c0.73-1.605,0.79-3.399,0.171-5.05
					c-0.619-1.651-1.845-2.962-3.45-3.692C165.698,110.005,164.771,109.806,163.842,109.806z"/>
			</g>
			<g>
				<g>
					<path style="fill:#E29837;" d="M187.402,166.446l-3.011,0.025c-7.552,0.063-13.725-6.009-13.788-13.561l-0.126-15.265
						c-0.063-7.552,6.009-13.725,13.561-13.788l28.514-0.236c-0.732-0.111-1.477-0.182-2.241-0.176l-29.609,0.245
						c-7.786,0.064-14.045,6.428-13.98,14.214l0.13,15.736c0.064,7.786,6.428,15.069,14.214,15.005l3.616-0.026l11.597,10.883
						l10.856-11.085l-8.717,8.863L187.402,166.446z"/>
					<path style="fill:#FFB54A;" d="M226.548,137.18c-0.063-7.552-6.236-13.624-13.788-13.561l-0.207,0.002l-28.514,0.236
						c-7.552,0.063-13.624,6.236-13.561,13.788l0.126,15.265c0.063,7.552,6.236,13.624,13.788,13.561l3.011-0.025l11.016,10.835
						l8.717-8.863l2.117-2.152l3.86-0.032c7.552-0.063,13.624-6.236,13.561-13.788L226.548,137.18z"/>
				</g>
				<g>
					<path style="fill:#FFFFFF;" d="M198.334,159.76c-1.865,0-3.614-0.271-5.249-0.811c-1.634-0.541-3.055-1.37-4.264-2.486
						c-1.208-1.117-2.158-2.526-2.849-4.23c-0.691-1.703-1.036-3.729-1.036-6.077c0-2.279,0.34-4.304,1.019-6.077
						c0.678-1.772,1.645-3.263,2.9-4.472c1.254-1.209,2.757-2.129,4.506-2.762c1.749-0.633,3.695-0.949,5.836-0.949
						c2.21,0,4.127,0.293,5.75,0.88c1.623,0.587,2.975,1.428,4.057,2.521c1.082,1.094,1.887,2.429,2.417,4.006
						c0.529,1.577,0.794,3.344,0.794,5.3c0,2.762-0.576,4.921-1.726,6.474c-1.152,1.554-2.855,2.331-5.111,2.331
						c-0.599,0-1.122-0.086-1.571-0.259c-0.449-0.173-0.829-0.397-1.139-0.674c-0.311-0.276-0.547-0.581-0.708-0.915
						c-0.162-0.333-0.265-0.673-0.311-1.019h-0.138c-0.599,0.898-1.381,1.571-2.348,2.02c-0.967,0.449-1.968,0.674-3.004,0.674
						c-1.566,0-2.762-0.558-3.591-1.675c-0.829-1.116-1.243-2.607-1.243-4.472c0-1.289,0.195-2.48,0.587-3.574
						c0.391-1.093,0.95-2.037,1.675-2.831c0.725-0.794,1.611-1.41,2.659-1.847c1.047-0.437,2.215-0.656,3.505-0.656
						c0.829,0,1.732,0.116,2.71,0.345c0.591,0.139,1.192,0.316,1.804,0.531c0.704,0.247,1.121,0.979,0.981,1.713l-1.11,5.837
						c-0.047,0.299-0.093,0.604-0.138,0.915c-0.047,0.311-0.069,0.604-0.069,0.881c0,0.53,0.121,0.962,0.363,1.295
						c0.241,0.334,0.673,0.501,1.295,0.501c0.874,0,1.559-0.495,2.054-1.485c0.495-0.99,0.743-2.359,0.743-4.109
						c0-2.854-0.749-5.087-2.244-6.699c-1.497-1.611-3.81-2.417-6.941-2.417c-1.566,0-2.993,0.236-4.281,0.708
						c-1.29,0.472-2.389,1.162-3.298,2.072c-0.91,0.91-1.611,2.026-2.106,3.349c-0.495,1.324-0.742,2.838-0.742,4.541
						c0,1.75,0.247,3.258,0.742,4.523c0.495,1.266,1.174,2.314,2.038,3.142c0.863,0.829,1.876,1.438,3.039,1.83
						c1.162,0.391,2.411,0.587,3.746,0.587c0.92,0,1.974-0.121,3.159-0.363c0.765-0.156,1.556-0.343,2.373-0.561
						c0.773-0.206,1.576,0.225,1.826,0.984l0.16,0.485c0.271,0.821-0.201,1.708-1.035,1.934c-0.948,0.257-1.866,0.472-2.754,0.645
						C200.705,159.628,199.462,159.76,198.334,159.76z M197.057,149.988c0.805,0,1.559-0.316,2.262-0.95
						c0.702-0.633,1.18-1.64,1.433-3.021l0.52-2.919c0.161-0.906-0.516-1.775-1.436-1.777c-0.006,0-0.012,0-0.017,0
						c-0.69,0-1.324,0.144-1.899,0.432c-0.576,0.288-1.07,0.691-1.485,1.209c-0.414,0.518-0.737,1.128-0.967,1.83
						c-0.23,0.702-0.345,1.467-0.345,2.296c0,0.852,0.149,1.549,0.449,2.089C195.871,149.718,196.366,149.988,197.057,149.988z"/>
				</g>
			</g>
		</g>
	</g>
</g>

</svg>
