<?xml version="1.0" encoding="UTF-8" standalone="no" ?>
<!DOCTYPE svg PUBLIC "-//W3C//DTD SVG 1.1//EN" "http://www.w3.org/Graphics/SVG/1.1/DTD/svg11.dtd">
<svg xmlns="http://www.w3.org/2000/svg" xmlns:xlink="http://www.w3.org/1999/xlink" version="1.1" width="1080" height="1080" viewBox="0 0 1080 1080" xml:space="preserve">
<desc>Created with Fabric.js 5.2.4</desc>
<defs>
</defs>
<g transform="matrix(1 0 0 1 540 540)" id="80926f46-5747-4aa8-b99f-104c663028ad"  >
</g>
<g transform="matrix(1 0 0 1 540 540)" id="bf075737-0b9c-40da-a053-10d38ee8e7f7"  >
<rect style="stroke: none; stroke-width: 1; stroke-dasharray: none; stroke-linecap: butt; stroke-dashoffset: 0; stroke-linejoin: miter; stroke-miterlimit: 4; fill: rgb(255,255,255); fill-rule: nonzero; opacity: 1;" vector-effect="non-scaling-stroke"  x="-540" y="-540" rx="0" ry="0" width="1080" height="1080" />
</g>
<g transform="matrix(32.73 0 0 32.73 540 540)"  >
<g style=""   >
		<g transform="matrix(1 0 0 1 -1.55 3.08)" id="Calque_1"  >
<path style="stroke: none; stroke-width: 1; stroke-dasharray: none; stroke-linecap: butt; stroke-dashoffset: 0; stroke-linejoin: miter; stroke-miterlimit: 4; fill: #7b68ee; fill-rule: nonzero; opacity: 1;" vector-effect="non-scaling-stroke"  transform=" translate(-14.95, -19.58)" d="M 27 18.3 L 25.7 18.3 L 25.7 17 C 25.7 15.4 24.4 14.1 22.8 14.1 L 20.400000000000002 14.1 L 20.400000000000002 12.799999999999999 C 20.400000000000002 12.399999999999999 20.1 11.999999999999998 19.6 11.999999999999998 L 15.600000000000001 11.999999999999998 L 15.600000000000001 11.299999999999999 C 16.700000000000003 10.899999999999999 17.400000000000002 9.7 17.1 8.5 C 16.900000000000002 7.9 16.6 7.4 16 7.1 C 15.5 6.8 14.8 6.699999999999999 14.2 6.8 C 13.6 7 13.1 7.3 12.799999999999999 7.9 C 12.499999999999998 8.5 12.399999999999999 9.1 12.499999999999998 9.700000000000001 C 12.699999999999998 10.500000000000002 13.299999999999999 11.100000000000001 13.999999999999998 11.3 L 13.999999999999998 12 L 9.999999999999998 12 C 9.599999999999998 12 9.199999999999998 12.3 9.199999999999998 12.8 L 9.199999999999998 14.100000000000001 L 7.1 14.100000000000001 C 5.5 14.100000000000001 4.199999999999999 15.400000000000002 4.199999999999999 17 L 4.199999999999999 18.3 L 2.9 18.3 C 1.9 18.3 1.0999999999999999 19.1 1.0999999999999999 20.1 L 1.0999999999999999 26.400000000000002 C 1.0999999999999999 27.400000000000002 1.9 28.200000000000003 2.9 28.200000000000003 L 4.2 28.200000000000003 L 4.2 29.500000000000004 C 4.2 31.100000000000005 5.5 32.400000000000006 7.1 32.400000000000006 L 22.799999999999997 32.400000000000006 C 24.4 32.400000000000006 25.699999999999996 31.100000000000005 25.699999999999996 29.500000000000007 L 25.699999999999996 28.200000000000006 L 27 28.200000000000006 C 28 28.200000000000006 28.8 27.400000000000006 28.8 26.400000000000006 L 28.8 20.100000000000005 C 28.8 19.1 28 18.3 27 18.3 z M 27.3 20.1 L 27.3 26.400000000000002 C 27.3 26.6 27.2 26.700000000000003 27 26.700000000000003 L 25.7 26.700000000000003 L 25.7 19.800000000000004 L 27 19.800000000000004 C 27.2 19.9 27.3 20 27.3 20.1 z M 15.8 9.1 C 15.8 9.5 15.4 9.9 15 9.9 C 14.6 9.9 14.2 9.5 14.2 9.1 C 14.2 8.9 14.299999999999999 8.7 14.399999999999999 8.5 C 14.599999999999998 8.3 14.799999999999999 8.3 14.999999999999998 8.3 C 14.999999999999998 8.3 14.999999999999998 8.3 14.999999999999998 8.3 C 15.4 8.3 15.8 8.7 15.8 9.1 z M 11 14.1 L 11 13.5 L 18.9 13.5 L 18.9 14.1 L 11 14.1 z M 24.1 17 L 24.1 29.6 C 24.1 30.3 23.5 30.900000000000002 22.8 30.900000000000002 L 7.1 30.900000000000002 C 6.3999999999999995 30.900000000000002 5.8 30.3 5.8 29.6 L 5.8 17 C 5.8 16.3 6.3999999999999995 15.7 7.1 15.7 L 22.799999999999997 15.7 C 23.6 15.7 24.1 16.3 24.1 17 z M 4.2 19.9 L 4.2 26.799999999999997 L 2.9 26.799999999999997 C 2.6999999999999997 26.799999999999997 2.6 26.699999999999996 2.6 26.499999999999996 L 2.6 20.199999999999996 C 2.6 19.999999999999996 2.7 19.899999999999995 2.9 19.899999999999995 L 4.2 19.899999999999995 z" stroke-linecap="round" />
</g>
		<g transform="matrix(1 0 0 1 -1.4 9.95)" id="Calque_1"  >
<path style="stroke: none; stroke-width: 1; stroke-dasharray: none; stroke-linecap: butt; stroke-dashoffset: 0; stroke-linejoin: miter; stroke-miterlimit: 4; fill: #7b68ee; fill-rule: nonzero; opacity: 1;" vector-effect="non-scaling-stroke"  transform=" translate(-15.1, -26.45)" d="M 19.7 23.1 L 10.299999999999999 23.1 C 10.299999999999999 23.1 10.299999999999999 23.1 10.299999999999999 23.1 C 10.1 23.1 9.899999999999999 23.200000000000003 9.799999999999999 23.3 C 9.7 23.400000000000002 9.6 23.6 9.6 23.8 L 9.6 24.3 C 9.6 27.3 12.1 29.8 15.1 29.8 C 18.1 29.8 20.6 27.3 20.6 24.3 L 20.6 23.8 C 20.6 23.6 20.5 23.400000000000002 20.400000000000002 23.3 C 20.1 23.1 19.9 23.1 19.7 23.1 z M 18.9 24.6 C 18.799999999999997 26.700000000000003 17.099999999999998 28.3 14.999999999999998 28.3 C 12.899999999999999 28.3 11.2 26.7 11.099999999999998 24.6 L 18.9 24.6 z" stroke-linecap="round" />
</g>
		<g transform="matrix(1 0 0 1 -6.8 3.4)" id="Calque_1"  >
<path style="stroke: none; stroke-width: 1; stroke-dasharray: none; stroke-linecap: butt; stroke-dashoffset: 0; stroke-linejoin: miter; stroke-miterlimit: 4; fill: #7b68ee; fill-rule: nonzero; opacity: 1;" vector-effect="non-scaling-stroke"  transform=" translate(-9.7, -19.9)" d="M 12 19.9 C 12 18.599999999999998 10.9 17.599999999999998 9.7 17.599999999999998 C 8.499999999999998 17.599999999999998 7.3999999999999995 18.7 7.3999999999999995 19.9 C 7.3999999999999995 21.2 8.5 22.2 9.7 22.2 C 10.899999999999999 22.2 12 21.2 12 19.9 z M 8.9 19.9 C 8.9 19.7 9 19.5 9.1 19.299999999999997 C 9.299999999999999 19.099999999999998 9.5 19.099999999999998 9.7 19.099999999999998 C 9.7 19.099999999999998 9.7 19.099999999999998 9.7 19.099999999999998 C 9.899999999999999 19.099999999999998 10.1 19.2 10.299999999999999 19.299999999999997 C 10.499999999999998 19.499999999999996 10.499999999999998 19.699999999999996 10.499999999999998 19.9 C 10.499999999999998 20.299999999999997 10.099999999999998 20.7 9.699999999999998 20.7 C 9.3 20.7 8.9 20.4 8.9 19.9 z" stroke-linecap="round" />
</g>
		<g transform="matrix(1 0 0 1 3.7 3.4)" id="Calque_1"  >
<path style="stroke: none; stroke-width: 1; stroke-dasharray: none; stroke-linecap: butt; stroke-dashoffset: 0; stroke-linejoin: miter; stroke-miterlimit: 4; fill: #7b68ee; fill-rule: nonzero; opacity: 1;" vector-effect="non-scaling-stroke"  transform=" translate(-20.2, -19.9)" d="M 20.2 17.6 L 20.2 17.6 C 18.9 17.6 17.9 18.700000000000003 17.9 19.900000000000002 C 17.9 21.200000000000003 19 22.200000000000003 20.2 22.200000000000003 C 21.5 22.200000000000003 22.5 21.1 22.5 19.900000000000002 C 22.5 18.6 21.5 17.6 20.2 17.6 z M 19.4 19.9 C 19.4 19.5 19.799999999999997 19.099999999999998 20.2 19.099999999999998 C 20.6 19.099999999999998 21 19.499999999999996 21 19.9 C 21 20.299999999999997 20.6 20.7 20.2 20.7 L 20.099999999999998 20.7 C 19.7 20.7 19.4 20.3 19.4 19.9 z M 20.2 17.8 L 20.2 17.8 L 20.2 17.8 L 20.2 17.8 z" stroke-linecap="round" />
</g>
		<g transform="matrix(1 0 0 1 9.6 -11.75)" id="Calque_1"  >
<path style="stroke: none; stroke-width: 1; stroke-dasharray: none; stroke-linecap: butt; stroke-dashoffset: 0; stroke-linejoin: miter; stroke-miterlimit: 4; fill: #7b68ee; fill-rule: nonzero; opacity: 1;" vector-effect="non-scaling-stroke"  transform=" translate(-26.1, -4.75)" d="M 24.5 5.5 L 27.6 5.5 C 28 5.5 28.400000000000002 5.2 28.400000000000002 4.7 C 28.400000000000002 4.2 28.1 4 27.7 4 L 24.599999999999998 4 C 24.2 4 23.799999999999997 4.3 23.799999999999997 4.8 C 23.799999999999997 5.3 24.1 5.5 24.5 5.5 z" stroke-linecap="round" />
</g>
		<g transform="matrix(1 0 0 1 9.6 -9.6)" id="Calque_1"  >
<path style="stroke: none; stroke-width: 1; stroke-dasharray: none; stroke-linecap: butt; stroke-dashoffset: 0; stroke-linejoin: miter; stroke-miterlimit: 4; fill: #7b68ee; fill-rule: nonzero; opacity: 1;" vector-effect="non-scaling-stroke"  transform=" translate(-26.1, -6.9)" d="M 28.3 6.1 L 23.9 6.1 C 23.5 6.1 23.099999999999998 6.3999999999999995 23.099999999999998 6.8999999999999995 C 23.099999999999998 7.3999999999999995 23.4 7.699999999999999 23.9 7.699999999999999 L 28.299999999999997 7.699999999999999 C 28.699999999999996 7.699999999999999 29.099999999999998 7.3999999999999995 29.099999999999998 6.8999999999999995 C 29.099999999999998 6.3999999999999995 28.7 6.1 28.3 6.1 z" stroke-linecap="round" />
</g>
		<g transform="matrix(1 0 0 1 9.65 -10.9)" id="Calque_1"  >
<path style="stroke: none; stroke-width: 1; stroke-dasharray: none; stroke-linecap: butt; stroke-dashoffset: 0; stroke-linejoin: miter; stroke-miterlimit: 4; fill: #7b68ee; fill-rule: nonzero; opacity: 1;" vector-effect="non-scaling-stroke"  transform=" translate(-26.15, -5.6)" d="M 26.4 0.3 L 25.9 0.3 C 23 0.3 20.599999999999998 2.6999999999999997 20.599999999999998 5.6 L 20.599999999999998 10.899999999999999 L 26.4 10.899999999999999 C 29.299999999999997 10.899999999999999 31.7 8.499999999999998 31.7 5.599999999999999 C 31.7 2.7 29.4 0.3 26.4 0.3 z M 30 5.6 C 30 7.6 28.4 9.2 26.4 9.2 L 22.299999999999997 9.2 L 22.299999999999997 5.6 C 22.299999999999997 3.5999999999999996 23.9 1.9999999999999996 25.9 1.9999999999999996 L 26.4 1.9999999999999996 C 28.4 2 30 3.6 30 5.6 z" stroke-linecap="round" />
</g>
</g>
</g>
</svg>