<?xml version="1.0" encoding="UTF-8" standalone="no" ?>
<!DOCTYPE svg PUBLIC "-//W3C//DTD SVG 1.1//EN" "http://www.w3.org/Graphics/SVG/1.1/DTD/svg11.dtd">
<svg xmlns="http://www.w3.org/2000/svg" xmlns:xlink="http://www.w3.org/1999/xlink" version="1.1" width="1080" height="1080" viewBox="0 0 1080 1080" xml:space="preserve">
<desc>Created with Fabric.js 5.2.4</desc>
<defs>
</defs>
<g transform="matrix(1 0 0 1 540 540)" id="48813376-c099-4a96-bb77-fab4e47bebff"  >
</g>
<g transform="matrix(1 0 0 1 540 540)" id="3c3b6a69-06aa-487e-bfac-3efc0291d416"  >
<rect style="stroke: none; stroke-width: 1; stroke-dasharray: none; stroke-linecap: butt; stroke-dashoffset: 0; stroke-linejoin: miter; stroke-miterlimit: 4; fill: transparent; fill-rule: nonzero; opacity: 1;" vector-effect="non-scaling-stroke"  x="-540" y="-540" rx="0" ry="0" width="1080" height="1080" />
</g>
<g transform="matrix(32.73 0 0 32.73 540 540)"  >
<g style=""   >
		<g transform="matrix(1 0 0 1 -0.34 -2.78)" id="Tracé_295"  >
<path style="stroke: none; stroke-width: 1; stroke-dasharray: none; stroke-linecap: butt; stroke-dashoffset: 0; stroke-linejoin: miter; stroke-miterlimit: 4; fill: #7b68ee; fill-rule: nonzero; opacity: 1;" vector-effect="non-scaling-stroke"  transform=" translate(-893.4, -540.05)" d="M 883.2 532.5 C 882.2 532.5 881.2 532.5 880.2 532.5 C 879.5 532.5 879 531.9 879 531.3 C 879 531 879.1 530.8 879.2 530.5999999999999 C 879.4000000000001 530.3 879.7 530.0999999999999 880 530.0999999999999 C 880.2 530.0999999999999 880.5 530.0999999999999 880.7 530.0999999999999 C 881.8000000000001 530.0999999999999 882.9000000000001 530.0999999999999 884 530.0999999999999 C 884.7 529.9999999999999 885.4 530.4999999999999 885.5 531.1999999999999 C 885.5 531.3 885.5 531.3 885.5 531.4 L 886.1 534.6 L 906.5 534.6 C 907.1 534.5 907.7 534.9 907.8 535.5 C 907.8 535.7 907.8 535.8 907.8 536 C 906.9 540.3 905.9 544.6 905 548.9 C 904.9 549.6 904.3 550.1 903.7 550 C 903.7 550 903.7 550 903.7 550 C 898.4000000000001 550 893.1 550 887.7 550 C 887 550.1 886.4000000000001 549.6 886.3000000000001 548.9 C 886.3000000000001 548.9 886.3000000000001 548.9 886.3000000000001 548.8 C 885.2 543.5 884.2 538.1999999999999 883.1 532.9 C 883.2 532.7 883.2 532.6 883.2 532.5 z M 905.2 536.9 L 886.6 536.9 C 886.6 536.9 886.6 537 886.6 537 C 887.3000000000001 540.4 887.9 543.7 888.6 547.1 C 888.6 547.3000000000001 888.8000000000001 547.4 889 547.4 C 893.5 547.4 898 547.4 902.6 547.4 C 902.9 547.4 903 547.3 903 547.1 C 903.5 544.8000000000001 904 542.4 904.5 540.1 C 904.8 539 905 538 905.2 536.9 z" stroke-linecap="round" />
</g>
		<g transform="matrix(1 0 0 1 -3.04 11.27)" id="Tracé_296"  >
<path style="stroke: none; stroke-width: 1; stroke-dasharray: none; stroke-linecap: butt; stroke-dashoffset: 0; stroke-linejoin: miter; stroke-miterlimit: 4; fill: #7b68ee; fill-rule: nonzero; opacity: 1;" vector-effect="non-scaling-stroke"  transform=" translate(-890.7, -554.1)" d="M 890.7 556.6 C 889.3000000000001 556.6 888.2 555.5 888.2 554.1 C 888.2 552.7 889.3000000000001 551.6 890.7 551.6 C 892.1 551.6 893.2 552.7 893.2 554.1 C 893.2 555.5 892.1 556.6 890.7 556.6 C 890.7 556.6 890.7 556.6 890.7 556.6 z" stroke-linecap="round" />
</g>
		<g transform="matrix(1 0 0 1 7.06 11.27)" id="Tracé_297"  >
<path style="stroke: none; stroke-width: 1; stroke-dasharray: none; stroke-linecap: butt; stroke-dashoffset: 0; stroke-linejoin: miter; stroke-miterlimit: 4; fill: #7b68ee; fill-rule: nonzero; opacity: 1;" vector-effect="non-scaling-stroke"  transform=" translate(-900.8, -554.1)" d="M 898.3 554.1 C 898.3 552.7 899.4 551.6 900.8 551.6 C 902.1999999999999 551.6 903.3 552.7 903.3 554.1 C 903.3 555.5 902.1999999999999 556.6 900.8 556.6 C 899.4 556.6 898.3 555.5 898.3 554.1 z" stroke-linecap="round" />
</g>
</g>
</g>
</svg>