<?xml version="1.0" encoding="UTF-8" standalone="no" ?>
<!DOCTYPE svg PUBLIC "-//W3C//DTD SVG 1.1//EN" "http://www.w3.org/Graphics/SVG/1.1/DTD/svg11.dtd">
<svg xmlns="http://www.w3.org/2000/svg" xmlns:xlink="http://www.w3.org/1999/xlink" version="1.1" width="1080" height="1080" viewBox="0 0 1080 1080" xml:space="preserve">
<desc>Created with Fabric.js 5.2.4</desc>
<defs>
</defs>
<g transform="matrix(1 0 0 1 540 540)" id="48813376-c099-4a96-bb77-fab4e47bebff"  >
</g>
<g transform="matrix(1 0 0 1 540 540)" id="3c3b6a69-06aa-487e-bfac-3efc0291d416"  >
<rect style="stroke: none; stroke-width: 1; stroke-dasharray: none; stroke-linecap: butt; stroke-dashoffset: 0; stroke-linejoin: miter; stroke-miterlimit: 4; fill: transparent; fill-rule: nonzero; opacity: 1;" vector-effect="non-scaling-stroke"  x="-540" y="-540" rx="0" ry="0" width="1080" height="1080" />
</g>
<g transform="matrix(32.73 0 0 32.73 540 540)" id="Tracé_390"  >
<path style="stroke: none; stroke-width: 1; stroke-dasharray: none; stroke-linecap: butt; stroke-dashoffset: 0; stroke-linejoin: miter; stroke-miterlimit: 4; fill: #7b68ee; fill-rule: nonzero; opacity: 1;"  transform=" translate(-16.28, -16.84)" d="M 27.6 12.3 C 26.6 12.8 25.6 13.200000000000001 24.700000000000003 13.700000000000001 C 24.6 13.700000000000001 24.6 13.9 24.6 14.000000000000002 C 24.6 16.3 24.6 18.6 24.6 20.8 C 24.6 22 24.1 23.2 23.1 23.900000000000002 C 21.8 24.900000000000002 20.3 25.6 18.700000000000003 25.900000000000002 C 15.700000000000003 26.6 12.600000000000003 26.400000000000002 9.700000000000003 25.3 C 8.600000000000003 24.900000000000002 7.600000000000003 24.3 6.8000000000000025 23.400000000000002 C 6.200000000000003 22.700000000000003 5.8000000000000025 21.900000000000002 5.900000000000002 20.900000000000002 C 5.900000000000002 18.6 5.900000000000002 16.300000000000004 5.900000000000002 14.000000000000002 C 5.900000000000002 13.800000000000002 5.8000000000000025 13.500000000000002 5.600000000000002 13.500000000000002 C 4.200000000000003 12.900000000000002 2.900000000000002 12.200000000000001 1.5000000000000027 11.600000000000001 C 1.1000000000000028 11.500000000000002 0.7000000000000026 11.000000000000002 0.7000000000000026 10.600000000000001 C 0.7000000000000026 10.100000000000001 1.0000000000000027 9.700000000000001 1.4000000000000026 9.600000000000001 C 5.8000000000000025 7.600000000000001 10.200000000000003 5.500000000000002 14.600000000000001 3.5000000000000018 C 14.900000000000002 3.3000000000000016 15.400000000000002 3.3000000000000016 15.700000000000001 3.5000000000000018 C 20.1 5.500000000000002 24.5 7.600000000000001 29 9.600000000000001 C 29.5 9.8 29.8 10.3 29.7 10.8 C 29.7 15.200000000000001 29.7 19.5 29.7 23.9 C 29.7 24.2 29.8 24.4 30.099999999999998 24.5 C 31.499999999999996 25.2 32.199999999999996 26.8 31.7 28.2 C 31.2 29.599999999999998 29.9 30.5 28.4 30.3 C 26.799999999999997 30.1 25.7 28.8 25.599999999999998 27.3 C 25.599999999999998 26.1 26.299999999999997 24.900000000000002 27.4 24.400000000000002 C 27.599999999999998 24.3 27.7 24.3 27.7 24.1 C 27.7 20.200000000000003 27.7 16.3 27.7 12.400000000000002 C 27.7 12.4 27.6 12.4 27.6 12.3 z M 4.2 10.7 C 4.3 10.799999999999999 4.4 10.799999999999999 4.4 10.799999999999999 C 7.9 12.399999999999999 11.5 14.099999999999998 15 15.7 C 15.1 15.7 15.3 15.7 15.4 15.7 C 18.2 14.399999999999999 21 13.1 23.9 11.799999999999999 C 24.7 11.499999999999998 25.4 11.1 26.2 10.7 C 26.099999999999998 10.6 26 10.6 25.9 10.6 C 22.4 9 18.9 7.3999999999999995 15.399999999999999 5.8 C 15.2 5.7 15.099999999999998 5.7 14.899999999999999 5.8 C 13 6.7 11 7.6 9.1 8.5 L 4.2 10.7 z M 8 14.8 C 8 15 8 15.100000000000001 8 15.200000000000001 C 8 17.1 8 19 8 20.900000000000002 C 8 21.400000000000002 8.2 22.000000000000004 8.6 22.3 C 9.2 22.7 9.799999999999999 23.1 10.4 23.400000000000002 C 13.4 24.500000000000004 16.8 24.6 19.8 23.500000000000004 C 20.5 23.300000000000004 21.2 22.900000000000002 21.8 22.400000000000002 C 22.3 22.000000000000004 22.5 21.400000000000002 22.5 20.8 C 22.5 18.900000000000002 22.5 17 22.5 15.200000000000001 C 22.5 15.100000000000001 22.5 15.000000000000002 22.5 14.8 C 22.3 14.9 22.2 14.9 22.1 14.9 C 20 15.9 18 16.8 15.900000000000002 17.8 C 15.500000000000002 18 14.900000000000002 18 14.500000000000002 17.8 C 12.500000000000002 16.900000000000002 10.600000000000001 16 8.600000000000001 15.100000000000001 C 8.4 14.9 8.2 14.9 8 14.8 z M 28.7 28.4 C 29.3 28.4 29.7 28 29.7 27.4 C 29.7 27.4 29.7 27.4 29.7 27.4 C 29.7 26.799999999999997 29.3 26.4 28.7 26.4 C 28.7 26.4 28.7 26.4 28.7 26.4 C 28.099999999999998 26.4 27.7 26.799999999999997 27.599999999999998 27.4 C 27.599999999999998 27.4 27.599999999999998 27.4 27.599999999999998 27.5 C 27.7 27.9 28.1 28.4 28.7 28.4 C 28.7 28.4 28.7 28.4 28.7 28.4 L 28.7 28.4 z" stroke-linecap="round" />
</g>
</svg>