<?xml version="1.0" encoding="UTF-8" standalone="no" ?>
<!DOCTYPE svg PUBLIC "-//W3C//DTD SVG 1.1//EN" "http://www.w3.org/Graphics/SVG/1.1/DTD/svg11.dtd">
<svg xmlns="http://www.w3.org/2000/svg" xmlns:xlink="http://www.w3.org/1999/xlink" version="1.1" width="1080" height="1080" viewBox="0 0 1080 1080" xml:space="preserve">
<desc>Created with Fabric.js 5.2.4</desc>
<defs>
</defs>
<g transform="matrix(1 0 0 1 540 540)" id="48813376-c099-4a96-bb77-fab4e47bebff"  >
</g>
<g transform="matrix(1 0 0 1 540 540)" id="3c3b6a69-06aa-487e-bfac-3efc0291d416"  >
<rect style="stroke: none; stroke-width: 1; stroke-dasharray: none; stroke-linecap: butt; stroke-dashoffset: 0; stroke-linejoin: miter; stroke-miterlimit: 4; fill: transparent; fill-rule: nonzero; opacity: 1;" vector-effect="non-scaling-stroke"  x="-540" y="-540" rx="0" ry="0" width="1080" height="1080" />
</g>
<g transform="matrix(32.73 0 0 32.73 540 540)"  >
<g style=""   >
		<g transform="matrix(1 0 0 1 -0.01 0.51)" id="Calque_1"  >
<path style="stroke: none; stroke-width: 1; stroke-dasharray: none; stroke-linecap: butt; stroke-dashoffset: 0; stroke-linejoin: miter; stroke-miterlimit: 4; fill: #7b68ee; fill-rule: nonzero; opacity: 1;" vector-effect="non-scaling-stroke"  transform=" translate(-16.49, -17.01)" d="M 30 21.9 C 29.2 21.099999999999998 28.3 20.599999999999998 27.3 20.299999999999997 C 27.5 20.099999999999998 27.6 19.699999999999996 27.5 19.299999999999997 C 26.9 17.199999999999996 25.9 15.199999999999998 24.5 13.499999999999996 C 23.7 12.599999999999996 22.8 11.699999999999996 21.9 10.799999999999997 C 21.5 10.299999999999997 21 9.899999999999997 20.599999999999998 9.399999999999997 C 20.4 9.199999999999998 20.299999999999997 9.099999999999996 19.999999999999996 8.999999999999996 C 20.199999999999996 8.799999999999997 20.399999999999995 8.499999999999996 20.399999999999995 8.299999999999997 C 20.399999999999995 7.799999999999997 20.099999999999994 7.399999999999997 19.599999999999994 7.399999999999997 C 19.499999999999993 7.399999999999997 19.299999999999994 7.399999999999997 19.199999999999996 7.399999999999997 L 18.899999999999995 7.399999999999997 C 18.899999999999995 7.399999999999997 18.899999999999995 7.399999999999997 18.899999999999995 7.399999999999997 L 19 7.3 C 19.8 5.9 20.7 4.5 21.5 3.2 C 21.6 3.1 21.6 3 21.7 2.9000000000000004 C 21.8 2.7 21.7 2.4000000000000004 21.599999999999998 2.2 C 21.499999999999996 2 21.299999999999997 1.8000000000000003 21.099999999999998 1.8000000000000003 C 20.9 1.7000000000000002 20.7 1.7000000000000002 20.499999999999996 1.7000000000000002 L 14.599999999999996 1.7000000000000002 C 12.599999999999996 1.7000000000000002 10.599999999999996 1.7000000000000002 8.799999999999997 1.7000000000000002 C 8.2 1.5 7.7 1.7 7.5 2.1 C 7.2 2.6 7.5 3 7.6 3.2 L 8.2 4.1000000000000005 C 8.799999999999999 5.1000000000000005 9.399999999999999 6.1000000000000005 10 7.1000000000000005 C 10 7.2 10.1 7.300000000000001 10.2 7.4 C 10 7.4 9.799999999999999 7.4 9.6 7.4 C 9.4 7.4 9.299999999999999 7.4 9.1 7.5 C 8.6 7.7 8.4 8.3 8.6 8.7 C 8.7 8.9 8.8 9 8.9 9.1 C 8.7 9.2 8.5 9.3 8.3 9.4 C 7.9 9.8 7.500000000000001 10.200000000000001 7.1000000000000005 10.6 C 6.4 11.299999999999999 5.700000000000001 12 5 12.7 C 2.3 15.6 1 19.4 1.2 23.2 C 1.3 25.9 2.9 28.299999999999997 5.4 29.5 C 7.1000000000000005 30.3 8.9 30.7 10.8 30.7 C 11.9 30.7 13 30.7 14.200000000000001 30.7 C 15.4 30.7 16.700000000000003 30.7 17.900000000000002 30.7 L 18.1 30.7 C 18.6 30.7 19.1 30.7 19.6 30.599999999999998 L 19.8 30.599999999999998 C 20.1 30.599999999999998 20.3 30.499999999999996 20.5 30.299999999999997 C 20.7 30.099999999999998 20.7 29.9 20.7 29.699999999999996 C 20.9 29.999999999999996 21.099999999999998 30.299999999999997 21.4 30.599999999999994 C 22.5 31.699999999999996 24.099999999999998 32.39999999999999 25.7 32.39999999999999 C 25.7 32.39999999999999 25.7 32.39999999999999 25.7 32.39999999999999 C 27.3 32.39999999999999 28.8 31.79999999999999 30 30.59999999999999 C 31.1 29.49999999999999 31.8 27.89999999999999 31.8 26.29999999999999 C 31.7 24.5 31.1 23 30 21.9 z M 25.7 30.3 C 25.7 30.3 25.7 30.3 25.7 30.3 C 23.4 30.3 21.5 28.400000000000002 21.5 26.1 C 21.5 23.8 23.4 21.900000000000002 25.7 21.900000000000002 C 25.7 21.900000000000002 25.7 21.900000000000002 25.7 21.900000000000002 C 28 21.900000000000002 29.799999999999997 23.700000000000003 29.9 25.900000000000002 L 29.9 26.000000000000004 C 29.8 28.4 28 30.2 25.7 30.3 z M 18.8 3.6 C 18.400000000000002 4.2 18.1 4.8 17.7 5.4 C 17.599999999999998 5.800000000000001 17.2 6 16.7 5.9 C 15.899999999999999 5.9 15.2 5.9 14.399999999999999 5.9 C 13.799999999999999 5.9 13.2 5.9 12.599999999999998 5.9 L 11.399999999999999 5.9 C 10.999999999999998 5.2 10.599999999999998 4.6000000000000005 10.299999999999999 4 L 10 3.6 L 18.8 3.6 C 18.8 3.6 18.8 3.6 18.8 3.6 z M 7.9 2.4 L 7.9 2.4 L 7.9 2.4 L 7.9 2.4 z M 19.6 28.6 C 19.5 28.6 19.3 28.6 19.200000000000003 28.6 C 19.000000000000004 28.6 18.800000000000004 28.6 18.6 28.6 L 16.900000000000002 28.6 C 15.000000000000002 28.6 13.000000000000002 28.6 11.100000000000001 28.6 C 10.100000000000001 28.6 9.100000000000001 28.5 8.100000000000001 28.3 C 5.100000000000001 27.8 2.9000000000000012 25.1 3.1000000000000014 22 C 3.1000000000000014 19.4 4.100000000000001 16.8 5.800000000000002 14.8 C 6.600000000000001 13.8 7.600000000000001 12.8 8.500000000000002 11.9 C 8.900000000000002 11.5 9.300000000000002 11.1 9.600000000000001 10.8 C 12.900000000000002 10.8 16.1 10.8 19.400000000000002 10.8 C 20.1 11.4 20.700000000000003 12.100000000000001 21.3 12.8 L 21.6 13.100000000000001 C 23.5 14.900000000000002 24.900000000000002 17.200000000000003 25.6 19.8 C 25.6 19.900000000000002 25.700000000000003 20 25.700000000000003 20 C 25.700000000000003 20 25.6 20 25.6 20 C 25.6 20 25.6 20 25.6 20 C 22.3 20 19.6 22.7 19.5 26 L 19.5 26 C 19.5 26.9 19.7 27.8 20.1 28.6 C 20.1 28.7 19.9 28.6 19.6 28.6 z" stroke-linecap="round" />
</g>
		<g transform="matrix(1 0 0 1 -1.94 4)" id="Calque_1"  >
<path style="stroke: none; stroke-width: 1; stroke-dasharray: none; stroke-linecap: butt; stroke-dashoffset: 0; stroke-linejoin: miter; stroke-miterlimit: 4; fill: #7b68ee; fill-rule: nonzero; opacity: 1;" vector-effect="non-scaling-stroke"  transform=" translate(-14.56, -20.5)" d="M 14.5 14.7 C 14.5 14.7 14.5 14.7 14.5 14.7 C 11.2 14.7 8.7 17.3 8.7 20.5 L 8.7 20.5 C 8.7 23.7 11.299999999999999 26.3 14.5 26.3 L 14.7 26.3 C 16.2 26.3 17.7 25.7 18.799999999999997 24.5 C 19.9 23.4 20.499999999999996 21.9 20.4 20.4 C 20.3 17.3 17.7 14.7 14.5 14.7 z M 18.3 20.5 C 18.3 21.5 17.900000000000002 22.5 17.2 23.2 C 16.5 23.9 15.5 24.3 14.5 24.3 C 12.4 24.3 10.6 22.5 10.6 20.400000000000002 C 10.6 18.3 12.299999999999999 16.500000000000004 14.5 16.500000000000004 C 14.5 16.500000000000004 14.5 16.500000000000004 14.5 16.500000000000004 C 15.5 16.500000000000004 16.5 16.900000000000002 17.2 17.600000000000005 C 17.9 18.5 18.3 19.5 18.3 20.5 z" stroke-linecap="round" />
</g>
		<g transform="matrix(1 0 0 1 9.23 9.6)" id="Calque_1"  >
<path style="stroke: none; stroke-width: 1; stroke-dasharray: none; stroke-linecap: butt; stroke-dashoffset: 0; stroke-linejoin: miter; stroke-miterlimit: 4; fill: #7b68ee; fill-rule: nonzero; opacity: 1;" vector-effect="non-scaling-stroke"  transform=" translate(-25.73, -26.1)" d="M 26.6 25.9 C 26.400000000000002 25.799999999999997 26.200000000000003 25.799999999999997 26 25.7 L 26 24.5 L 26.9 24.9 L 27.299999999999997 24.299999999999997 C 26.9 23.999999999999996 26.4 23.799999999999997 25.9 23.799999999999997 L 25.9 23.499999999999996 L 25.5 23.499999999999996 C 25.5 23.599999999999998 25.5 23.699999999999996 25.5 23.799999999999997 C 25.2 23.9 25 23.9 24.8 23.999999999999996 C 24.400000000000002 24.199999999999996 24.1 24.699999999999996 24.1 25.199999999999996 C 24.1 25.699999999999996 24.400000000000002 26.099999999999994 24.8 26.199999999999996 C 25 26.299999999999997 25.2 26.299999999999997 25.400000000000002 26.399999999999995 C 25.500000000000004 26.399999999999995 25.500000000000004 26.499999999999996 25.500000000000004 26.499999999999996 C 25.500000000000004 26.899999999999995 25.500000000000004 27.299999999999997 25.500000000000004 27.699999999999996 C 25.100000000000005 27.599999999999994 24.700000000000003 27.399999999999995 24.400000000000002 27.099999999999994 L 24 27.6 C 24.5 28 25 28.200000000000003 25.6 28.3 L 25.6 28.7 L 26 28.7 L 26 28.3 C 26.1 28.3 26.2 28.3 26.3 28.2 C 26.900000000000002 28.099999999999998 27.400000000000002 27.7 27.400000000000002 27.099999999999998 C 27.6 26.6 27.2 26 26.6 25.9 z M 25.6 25.5 C 25.200000000000003 25.5 25 25.2 25 24.9 C 25 24.599999999999998 25.2 24.4 25.6 24.4 L 25.6 25.5 z M 26 27.7 L 26 26.599999999999998 L 26 26.599999999999998 C 26.4 26.7 26.7 26.9 26.7 27.2 C 26.7 27.4 26.4 27.6 26 27.7 z" stroke-linecap="round" />
</g>
		<g transform="matrix(1 0 0 1 -1.99 4.05)" id="Calque_1"  >
<path style="stroke: none; stroke-width: 1; stroke-dasharray: none; stroke-linecap: butt; stroke-dashoffset: 0; stroke-linejoin: miter; stroke-miterlimit: 4; fill: #7b68ee; fill-rule: nonzero; opacity: 1;" vector-effect="non-scaling-stroke"  transform=" translate(-14.51, -20.55)" d="M 15.3 20.4 C 15.100000000000001 20.299999999999997 14.9 20.299999999999997 14.700000000000001 20.2 L 14.700000000000001 19.099999999999998 L 15.500000000000002 19.4 L 15.900000000000002 18.9 C 15.500000000000002 18.7 15.100000000000001 18.5 14.700000000000003 18.4 L 14.700000000000003 18.099999999999998 L 14.300000000000002 18.099999999999998 L 14.300000000000002 18.299999999999997 C 14.100000000000003 18.4 13.800000000000002 18.499999999999996 13.600000000000003 18.599999999999998 C 13.200000000000003 18.799999999999997 13.000000000000004 19.2 13.000000000000004 19.7 C 13.000000000000004 20.099999999999998 13.200000000000003 20.4 13.600000000000003 20.599999999999998 C 13.800000000000002 20.7 14.000000000000004 20.7 14.200000000000003 20.799999999999997 C 14.200000000000003 20.799999999999997 14.300000000000002 20.9 14.300000000000002 20.9 C 14.300000000000002 21.2 14.300000000000002 21.599999999999998 14.300000000000002 21.9 C 13.900000000000002 21.799999999999997 13.600000000000003 21.7 13.300000000000002 21.4 L 12.9 22 C 13.3 22.4 13.8 22.6 14.4 22.7 L 14.4 23 L 14.8 23 L 14.8 22.6 C 14.9 22.6 15 22.6 15.100000000000001 22.6 C 15.600000000000001 22.5 16 22.1 16.1 21.6 C 16.2 21 15.8 20.5 15.3 20.4 z M 13.8 19.5 C 13.9 19.3 14.100000000000001 19.1 14.3 19.1 L 14.3 20.1 C 13.9 20 13.8 19.8 13.8 19.5 z M 14.8 22 L 14.8 21 C 15.200000000000001 21.1 15.4 21.3 15.4 21.5 C 15.4 21.7 15.2 21.9 14.8 22 z" stroke-linecap="round" />
</g>
</g>
</g>
</svg>