<?xml version="1.0" encoding="UTF-8" standalone="no" ?>
<!DOCTYPE svg PUBLIC "-//W3C//DTD SVG 1.1//EN" "http://www.w3.org/Graphics/SVG/1.1/DTD/svg11.dtd">
<svg xmlns="http://www.w3.org/2000/svg" xmlns:xlink="http://www.w3.org/1999/xlink" version="1.1" width="1080" height="1080" viewBox="0 0 1080 1080" xml:space="preserve">
<desc>Created with Fabric.js 5.2.4</desc>
<defs>
</defs>
<g transform="matrix(1 0 0 1 540 540)" id="80926f46-5747-4aa8-b99f-104c663028ad"  >
</g>
<g transform="matrix(1 0 0 1 540 540)" id="bf075737-0b9c-40da-a053-10d38ee8e7f7"  >
<rect style="stroke: none; stroke-width: 1; stroke-dasharray: none; stroke-linecap: butt; stroke-dashoffset: 0; stroke-linejoin: miter; stroke-miterlimit: 4; fill: rgb(255,255,255); fill-rule: nonzero; opacity: 1;" vector-effect="non-scaling-stroke"  x="-540" y="-540" rx="0" ry="0" width="1080" height="1080" />
</g>
<g transform="matrix(32.73 0 0 32.73 540 540)" id="Calque_1"  >
<path style="stroke: none; stroke-width: 1; stroke-dasharray: none; stroke-linecap: butt; stroke-dashoffset: 0; stroke-linejoin: miter; stroke-miterlimit: 4; fill: #7b68ee; fill-rule: nonzero; opacity: 1;"  transform=" translate(-16.22, -16.7)" d="M 28.4 17.9 C 27.2 17.9 26.2 18.7 25.9 19.799999999999997 L 22.299999999999997 19.799999999999997 L 20.299999999999997 13.799999999999997 C 20.199999999999996 13.499999999999996 19.9 13.299999999999997 19.599999999999998 13.299999999999997 C 19.299999999999997 13.299999999999997 18.999999999999996 13.499999999999996 18.9 13.799999999999997 L 15.7 25.799999999999997 L 13 3.5 C 13 3.2 12.7 2.9 12.3 2.9 C 12 2.9 11.600000000000001 3.1 11.5 3.4 L 7.3 19.9 L 2.1 19.9 C 1.7000000000000002 19.9 1.4000000000000001 20.2 1.4000000000000001 20.599999999999998 C 1.4000000000000001 20.999999999999996 1.7000000000000002 21.299999999999997 2.1 21.299999999999997 L 7.9 21.299999999999997 C 8.200000000000001 21.299999999999997 8.5 21.099999999999998 8.6 20.799999999999997 L 12 7.6 L 14.7 29.9 C 14.7 30.2 15 30.5 15.399999999999999 30.5 L 15.399999999999999 30.5 C 15.7 30.5 15.999999999999998 30.3 16.099999999999998 30 L 19.599999999999998 16.7 L 20.999999999999996 20.799999999999997 C 21.099999999999998 21.099999999999998 21.399999999999995 21.299999999999997 21.699999999999996 21.299999999999997 L 25.899999999999995 21.299999999999997 C 26.299999999999994 22.699999999999996 27.799999999999994 23.499999999999996 29.199999999999996 22.999999999999996 C 30.599999999999994 22.599999999999998 31.399999999999995 21.099999999999998 30.899999999999995 19.699999999999996 C 30.6 18.7 29.6 17.9 28.4 17.9 z" stroke-linecap="round" />
</g>
</svg>