<?xml version="1.0" encoding="UTF-8" standalone="no" ?>
<!DOCTYPE svg PUBLIC "-//W3C//DTD SVG 1.1//EN" "http://www.w3.org/Graphics/SVG/1.1/DTD/svg11.dtd">
<svg xmlns="http://www.w3.org/2000/svg" xmlns:xlink="http://www.w3.org/1999/xlink" version="1.1" width="1080" height="1080" viewBox="0 0 1080 1080" xml:space="preserve">
<desc>Created with Fabric.js 5.2.4</desc>
<defs>
</defs>
<g transform="matrix(1 0 0 1 540 540)" id="3c3b6a69-06aa-487e-bfac-3efc0291d416"  >
<rect style="stroke: none; stroke-width: 1; stroke-dasharray: none; stroke-linecap: butt; stroke-dashoffset: 0; stroke-linejoin: miter; stroke-miterlimit: 4; fill: #7b68ee; fill-rule: nonzero; opacity: 1; visibility: hidden;" vector-effect="non-scaling-stroke"  x="-540" y="-540" rx="0" ry="0" width="1080" height="1080" />
</g>
<g transform="matrix(1 0 0 1 540 540)" id="48813376-c099-4a96-bb77-fab4e47bebff"  >
</g>
<g transform="matrix(32.73 0 0 32.73 540 540)" id="Tracé_290"  >
<path style="stroke: none; stroke-width: 1; stroke-dasharray: none; stroke-linecap: butt; stroke-dashoffset: 0; stroke-linejoin: miter; stroke-miterlimit: 4; fill: #7b68ee; fill-rule: nonzero; opacity: 1;"  transform=" translate(-16.85, -17.34)" d="M 12.7 13.6 C 12.1 14.7 11.399999999999999 15.6 10.899999999999999 16.6 C 10.599999999999998 17.1 10.099999999999998 17.400000000000002 9.499999999999998 17.400000000000002 C 8.899999999999999 17.400000000000002 6.799999999999998 17.400000000000002 3.8999999999999986 17.400000000000002 C 3.2999999999999985 17.400000000000002 2.8999999999999986 16.900000000000002 2.8999999999999986 16.400000000000002 L 2.8999999999999986 16.400000000000002 C 2.8999999999999986 15.800000000000002 3.3999999999999986 15.400000000000002 3.8999999999999986 15.400000000000002 C 6.799999999999999 15.400000000000002 8.799999999999999 15.400000000000002 8.999999999999998 15.400000000000002 C 9.099999999999998 15.400000000000002 9.199999999999998 15.400000000000002 9.299999999999999 15.300000000000002 C 9.399999999999999 15.200000000000003 9.499999999999998 15.200000000000003 9.499999999999998 15.100000000000003 C 10.299999999999999 13.800000000000002 11.099999999999998 12.400000000000002 11.999999999999998 11.100000000000003 C 12.199999999999998 10.700000000000003 12.599999999999998 10.400000000000004 13.099999999999998 10.400000000000004 C 13.599999999999998 10.400000000000004 13.899999999999999 10.800000000000004 14.099999999999998 11.300000000000004 C 15.199999999999998 13.700000000000005 16.2 16.100000000000005 17.299999999999997 18.500000000000004 C 17.4 18.600000000000005 17.4 18.700000000000003 17.499999999999996 18.900000000000002 C 17.699999999999996 18.700000000000003 17.899999999999995 18.500000000000004 18.099999999999998 18.3 C 18.9 17.5 19.599999999999998 16.7 20.4 15.9 C 20.7 15.6 21 15.4 21.4 15.4 C 23.7 15.4 26 15.4 28.299999999999997 15.4 L 28.799999999999997 15.4 C 28.9 14.9 28.999999999999996 14.4 29.099999999999998 13.8 C 29.4 11.5 28.499999999999996 9.200000000000001 26.7 7.700000000000001 C 25.099999999999998 6.300000000000001 22.8 6.000000000000001 20.799999999999997 6.800000000000001 C 19.599999999999998 7.200000000000001 18.599999999999998 7.800000000000001 17.699999999999996 8.700000000000001 C 17.299999999999997 9.200000000000001 16.599999999999994 9.3 16.199999999999996 8.9 C 16.099999999999994 8.8 16.099999999999994 8.8 15.999999999999996 8.700000000000001 C 15.199999999999996 7.900000000000001 14.299999999999997 7.200000000000001 13.299999999999997 6.700000000000001 C 11.899999999999997 6.000000000000001 10.299999999999997 6.000000000000001 8.899999999999997 6.600000000000001 C 7.8 6.9 7 7.4 6.3 8.1 C 5.5 8.9 5 9.8 4.6 10.9 C 4.3999999999999995 11.4 3.9999999999999996 11.6 3.4999999999999996 11.6 L 3.4999999999999996 11.6 C 2.9999999999999996 11.5 2.5999999999999996 11 2.6999999999999993 10.5 C 2.6999999999999993 10.5 2.6999999999999993 10.4 2.6999999999999993 10.4 L 2.6999999999999993 10.4 C 3.7999999999999994 6.5 7.499999999999999 4 11.6 4.2 C 12.6 4.3 13.6 4.6000000000000005 14.399999999999999 5.2 C 15.2 5.7 15.899999999999999 6.2 16.599999999999998 6.7 C 17.4 6.2 18.299999999999997 5.7 19.2 5.300000000000001 C 21.4 4.200000000000001 24 4.200000000000001 26.2 5.300000000000001 C 28.599999999999998 6.500000000000001 30.299999999999997 8.8 30.799999999999997 11.4 C 31.099999999999998 12.9 31.099999999999998 14.4 30.699999999999996 15.8 C 30.199999999999996 17.400000000000002 29.299999999999997 18.8 28.199999999999996 19.9 C 24.299999999999997 23.9 19.599999999999994 28.4 17.599999999999994 30.2 C 17.099999999999994 30.599999999999998 16.399999999999995 30.599999999999998 15.999999999999995 30.2 L 7.999999999999995 22.5 C 7.599999999999994 22.1 7.599999999999994 21.5 7.999999999999995 21.1 C 7.999999999999995 21.1 7.999999999999995 21.1 7.999999999999995 21.1 L 7.999999999999995 21.1 C 8.399999999999995 20.700000000000003 8.999999999999995 20.700000000000003 9.399999999999995 21.1 L 15.999999999999995 27.5 C 16.499999999999993 27.9 17.199999999999996 27.9 17.599999999999994 27.5 L 27.599999999999994 17.8 L 27.599999999999994 17.7 C 27.499999999999993 17.7 27.399999999999995 17.7 27.299999999999994 17.7 C 25.499999999999993 17.7 23.699999999999992 17.7 21.999999999999993 17.7 C 21.799999999999994 17.7 21.599999999999994 17.8 21.499999999999993 17.9 C 20.299999999999994 19.099999999999998 19.199999999999992 20.299999999999997 18.099999999999994 21.5 C 17.799999999999994 22 17.099999999999994 22.1 16.599999999999994 21.7 C 16.399999999999995 21.599999999999998 16.299999999999994 21.4 16.199999999999996 21.2 C 15.199999999999996 18.9 14.199999999999996 16.6 13.199999999999996 14.299999999999999 C 12.9 13.9 12.8 13.8 12.7 13.6 z" stroke-linecap="round" />
</g>
</svg>