<?xml version="1.0" encoding="UTF-8" standalone="no" ?>
<!DOCTYPE svg PUBLIC "-//W3C//DTD SVG 1.1//EN" "http://www.w3.org/Graphics/SVG/1.1/DTD/svg11.dtd">
<svg xmlns="http://www.w3.org/2000/svg" xmlns:xlink="http://www.w3.org/1999/xlink" version="1.1" width="1080" height="1080" viewBox="0 0 1080 1080" xml:space="preserve">
<desc>Created with Fabric.js 5.2.4</desc>
<defs>
</defs>
<g transform="matrix(1 0 0 1 540 540)" id="80926f46-5747-4aa8-b99f-104c663028ad"  >
</g>
<g transform="matrix(1 0 0 1 540 540)" id="bf075737-0b9c-40da-a053-10d38ee8e7f7"  >
<rect style="stroke: none; stroke-width: 1; stroke-dasharray: none; stroke-linecap: butt; stroke-dashoffset: 0; stroke-linejoin: miter; stroke-miterlimit: 4; fill: rgb(255,255,255); fill-rule: nonzero; opacity: 1;" vector-effect="non-scaling-stroke"  x="-540" y="-540" rx="0" ry="0" width="1080" height="1080" />
</g>
<g transform="matrix(32.73 0 0 32.73 540 540)"  >
<g style=""   >
		<g transform="matrix(1 0 0 1 0.04 0.17)" id="Tracé_327"  >
<path style="stroke: none; stroke-width: 1; stroke-dasharray: none; stroke-linecap: butt; stroke-dashoffset: 0; stroke-linejoin: miter; stroke-miterlimit: 4; fill: #7b68ee; fill-rule: nonzero; opacity: 1;" vector-effect="non-scaling-stroke"  transform=" translate(-1432.65, -594.85)" d="M 1445.5 594.9 C 1445.5 598.1999999999999 1445.5 601.6 1445.5 604.9 C 1445.5 606.3 1444.6 607.4 1443.2 607.6999999999999 C 1443 607.6999999999999 1442.8 607.6999999999999 1442.6000000000001 607.6999999999999 C 1436.0000000000002 607.6999999999999 1429.3000000000002 607.6999999999999 1422.7 607.6999999999999 C 1421.2 607.8 1419.9 606.5999999999999 1419.8 605.0999999999999 C 1419.8 604.9999999999999 1419.8 604.8999999999999 1419.8 604.8 C 1419.8 598.1999999999999 1419.8 591.5 1419.8 584.9 C 1419.7 583.4 1420.8999999999999 582.1 1422.3999999999999 582 C 1422.4999999999998 582 1422.6 582 1422.6999999999998 582 C 1429.2999999999997 582 1435.9999999999998 582 1442.6 582 C 1444.1 581.9 1445.3999999999999 583.1 1445.5 584.6 C 1445.5 584.7 1445.5 584.8000000000001 1445.5 584.9 C 1445.5 588.3 1445.5 591.6 1445.5 594.9 z M 1421.7 591.3 L 1421.7 591.5999999999999 C 1421.7 595.9999999999999 1421.7 600.3999999999999 1421.7 604.8 C 1421.7 605.5999999999999 1422 605.9 1422.8 605.9 L 1442.6 605.9 C 1443.3999999999999 605.9 1443.6999999999998 605.6 1443.6999999999998 604.8 C 1443.6999999999998 600.4 1443.6999999999998 596 1443.6999999999998 591.5999999999999 L 1443.6999999999998 591.3 L 1421.7 591.3 z M 1443.7 589.4 L 1443.7 589.1 C 1443.7 587.8000000000001 1443.7 586.5 1443.7 585.1 C 1443.7 584.3000000000001 1443.4 583.9 1442.5 583.9 L 1422.7 583.9 C 1421.9 583.9 1421.6000000000001 584.1999999999999 1421.6000000000001 585 C 1421.6000000000001 586.4 1421.6000000000001 587.7 1421.6000000000001 589.1 L 1421.6000000000001 589.4 L 1443.7 589.4 z" stroke-linecap="round" />
</g>
		<g transform="matrix(1 0 0 1 -4.9 3.97)" id="Tracé_328"  >
<path style="stroke: none; stroke-width: 1; stroke-dasharray: none; stroke-linecap: butt; stroke-dashoffset: 0; stroke-linejoin: miter; stroke-miterlimit: 4; fill: #7b68ee; fill-rule: nonzero; opacity: 1;" vector-effect="non-scaling-stroke"  transform=" translate(-1427.7, -598.65)" d="M 1431.8 598.6 C 1431.8 599.8000000000001 1431.8 601 1431.8 602.2 C 1431.8999999999999 603.2 1431.1 604.1 1430.1 604.1 C 1430 604.1 1430 604.1 1429.8999999999999 604.1 C 1428.3999999999999 604.1 1426.9999999999998 604.1 1425.4999999999998 604.1 C 1424.4999999999998 604.2 1423.5999999999997 603.4 1423.5999999999997 602.4 C 1423.5999999999997 602.3 1423.5999999999997 602.3 1423.5999999999997 602.1999999999999 C 1423.5999999999997 599.8 1423.5999999999997 597.4999999999999 1423.5999999999997 595.0999999999999 C 1423.4999999999998 594.0999999999999 1424.2999999999997 593.1999999999999 1425.2999999999997 593.1999999999999 C 1425.3999999999996 593.1999999999999 1425.3999999999996 593.1999999999999 1425.4999999999998 593.1999999999999 C 1426.9999999999998 593.1999999999999 1428.3999999999999 593.1999999999999 1429.8999999999999 593.1999999999999 C 1430.8999999999999 593.0999999999999 1431.8 593.9 1431.8 594.9 C 1431.8 595 1431.8 595.1 1431.8 595.1 C 1431.8 596.2 1431.8 597.4 1431.8 598.6 z M 1425.4 602.2 L 1429.9 602.2 L 1429.9 594.9000000000001 L 1425.4 594.9000000000001 L 1425.4 602.2 z" stroke-linecap="round" />
</g>
		<g transform="matrix(1 0 0 1 5.25 0.27)" id="Tracé_329"  >
<path style="stroke: none; stroke-width: 1; stroke-dasharray: none; stroke-linecap: butt; stroke-dashoffset: 0; stroke-linejoin: miter; stroke-miterlimit: 4; fill: #7b68ee; fill-rule: nonzero; opacity: 1;" vector-effect="non-scaling-stroke"  transform=" translate(-1437.85, -594.95)" d="M 1437.8 594 C 1438.8 594 1439.8999999999999 594 1440.8999999999999 594 C 1441.3999999999999 594 1441.8 594.4 1441.8999999999999 594.9 C 1441.8999999999999 595.1 1441.8999999999999 595.1999999999999 1441.8 595.4 C 1441.6 595.6999999999999 1441.3 595.9 1441 595.9 C 1438.9 595.9 1436.8 595.9 1434.7 595.9 C 1434.2 595.9 1433.8 595.5 1433.8 595 C 1433.8 594.5 1434.2 594.1 1434.7 594.1 C 1434.7 594.1 1434.7 594.1 1434.8 594.1 C 1435.7 594 1436.7 594 1437.8 594 z" stroke-linecap="round" />
</g>
		<g transform="matrix(1 0 0 1 5.08 3.92)" id="Tracé_330"  >
<path style="stroke: none; stroke-width: 1; stroke-dasharray: none; stroke-linecap: butt; stroke-dashoffset: 0; stroke-linejoin: miter; stroke-miterlimit: 4; fill: #7b68ee; fill-rule: nonzero; opacity: 1;" vector-effect="non-scaling-stroke"  transform=" translate(-1437.69, -598.59)" d="M 1437.7 599.5 C 1436.6000000000001 599.5 1435.6000000000001 599.5 1434.5 599.5 C 1434.1 599.5 1433.7 599.2 1433.6 598.8 C 1433.5 598.4 1433.6999999999998 598 1434.1 597.8 C 1434.3 597.6999999999999 1434.3999999999999 597.6999999999999 1434.6 597.6999999999999 C 1436.6999999999998 597.6999999999999 1438.6999999999998 597.6999999999999 1440.8 597.6999999999999 C 1441.3 597.5999999999999 1441.8 597.9999999999999 1441.8 598.4999999999999 C 1441.8 598.9999999999999 1441.5 599.4999999999999 1441 599.4999999999999 C 1440.9 599.4999999999999 1440.9 599.4999999999999 1440.8 599.4999999999999 C 1439.8 599.5 1438.8 599.5 1437.7 599.5 z" stroke-linecap="round" />
</g>
		<g transform="matrix(1 0 0 1 5.18 7.57)" id="Tracé_331"  >
<path style="stroke: none; stroke-width: 1; stroke-dasharray: none; stroke-linecap: butt; stroke-dashoffset: 0; stroke-linejoin: miter; stroke-miterlimit: 4; fill: #7b68ee; fill-rule: nonzero; opacity: 1;" vector-effect="non-scaling-stroke"  transform=" translate(-1437.78, -602.25)" d="M 1437.8 603.2 C 1436.7 603.2 1435.7 603.2 1434.6 603.2 C 1434.1999999999998 603.2 1433.8 602.9000000000001 1433.6999999999998 602.5 C 1433.6 602.1 1433.6999999999998 601.7 1434.1 601.5 C 1434.3 601.4 1434.3999999999999 601.3 1434.6 601.3 C 1436.6999999999998 601.3 1438.8999999999999 601.3 1441 601.3 C 1441.5 601.3 1441.9 601.6999999999999 1441.9 602.1999999999999 C 1441.9 602.6999999999999 1441.5 603.0999999999999 1441 603.0999999999999 C 1439.9 603.2 1438.8 603.2 1437.8 603.2 z" stroke-linecap="round" />
</g>
		<g transform="matrix(1 0 0 1 -7.65 -7.93)" id="Tracé_332"  >
<path style="stroke: none; stroke-width: 1; stroke-dasharray: none; stroke-linecap: butt; stroke-dashoffset: 0; stroke-linejoin: miter; stroke-miterlimit: 4; fill: #7b68ee; fill-rule: nonzero; opacity: 1;" vector-effect="non-scaling-stroke"  transform=" translate(-1424.95, -586.75)" d="M 1424.9 585.8 C 1425.1000000000001 585.8 1425.2 585.8 1425.4 585.8 C 1425.9 585.8 1426.3000000000002 586.1999999999999 1426.3000000000002 586.6999999999999 C 1426.3000000000002 587.1999999999999 1426.0000000000002 587.5999999999999 1425.5000000000002 587.6999999999999 C 1425.5000000000002 587.6999999999999 1425.5000000000002 587.6999999999999 1425.5000000000002 587.6999999999999 C 1425.1000000000001 587.6999999999999 1424.8000000000002 587.6999999999999 1424.4000000000003 587.6999999999999 C 1423.9000000000003 587.6999999999999 1423.6000000000004 587.1999999999999 1423.6000000000004 586.6999999999999 C 1423.6000000000004 586.1999999999999 1424.0000000000005 585.8 1424.5000000000005 585.8 C 1424.6 585.8 1424.8 585.8 1424.9 585.8 z" stroke-linecap="round" />
</g>
		<g transform="matrix(1 0 0 1 -3.05 -7.98)" id="Tracé_333"  >
<path style="stroke: none; stroke-width: 1; stroke-dasharray: none; stroke-linecap: butt; stroke-dashoffset: 0; stroke-linejoin: miter; stroke-miterlimit: 4; fill: #7b68ee; fill-rule: nonzero; opacity: 1;" vector-effect="non-scaling-stroke"  transform=" translate(-1429.55, -586.7)" d="M 1429.5 587.6 C 1429.3 587.6 1429.1 587.6 1428.9 587.6 C 1428.4 587.5 1428.1000000000001 587.1 1428.2 586.6 C 1428.2 586.1 1428.6000000000001 585.8000000000001 1429 585.8000000000001 C 1429.3 585.8000000000001 1429.7 585.8000000000001 1430.1 585.8000000000001 C 1430.6 585.8000000000001 1430.8999999999999 586.2 1430.8999999999999 586.6 C 1430.9999999999998 587.1 1430.6 587.5 1430.1999999999998 587.6 C 1429.9 587.6 1429.7 587.6 1429.5 587.6 z" stroke-linecap="round" />
</g>
</g>
</g>
</svg>