<?xml version="1.0" encoding="UTF-8" standalone="no" ?>
<!DOCTYPE svg PUBLIC "-//W3C//DTD SVG 1.1//EN" "http://www.w3.org/Graphics/SVG/1.1/DTD/svg11.dtd">
<svg xmlns="http://www.w3.org/2000/svg" xmlns:xlink="http://www.w3.org/1999/xlink" version="1.1" width="1080" height="1080" viewBox="0 0 1080 1080" xml:space="preserve">
<desc>Created with Fabric.js 5.2.4</desc>
<defs>
</defs>
<g transform="matrix(1 0 0 1 540 540)" id="48813376-c099-4a96-bb77-fab4e47bebff"  >
</g>
<g transform="matrix(1 0 0 1 540 540)" id="3c3b6a69-06aa-487e-bfac-3efc0291d416"  >
<rect style="stroke: none; stroke-width: 1; stroke-dasharray: none; stroke-linecap: butt; stroke-dashoffset: 0; stroke-linejoin: miter; stroke-miterlimit: 4; fill: transparent; fill-rule: nonzero; opacity: 1;" vector-effect="non-scaling-stroke"  x="-540" y="-540" rx="0" ry="0" width="1080" height="1080" />
</g>
<g transform="matrix(32.73 0 0 32.73 540 540)"  >
<g style=""   >
		<g transform="matrix(1 0 0 1 -4.17 2.35)" id="Tracé_293"  >
<path style="stroke: none; stroke-width: 1; stroke-dasharray: none; stroke-linecap: butt; stroke-dashoffset: 0; stroke-linejoin: miter; stroke-miterlimit: 4; fill: #7b68ee; fill-rule: nonzero; opacity: 1;" vector-effect="non-scaling-stroke"  transform=" translate(-940.9, -25.15)" d="M 942.6 22.8 C 941.5 22.8 940.3000000000001 22.8 939.2 22.8 C 938.8000000000001 22.7 938.5 23 938.4000000000001 23.400000000000002 C 938.4000000000001 23.500000000000004 938.4000000000001 23.500000000000004 938.4000000000001 23.6 C 938.4000000000001 24.6 938.4000000000001 25.700000000000003 938.4000000000001 26.700000000000003 C 938.4000000000001 27.1 938.6000000000001 27.400000000000002 939.0000000000001 27.500000000000004 C 939.1000000000001 27.500000000000004 939.1000000000001 27.500000000000004 939.2000000000002 27.500000000000004 L 942.6000000000001 27.500000000000004 C 943.0000000000001 27.600000000000005 943.3000000000002 27.300000000000004 943.4000000000001 26.900000000000002 C 943.4000000000001 26.8 943.4000000000001 26.8 943.4000000000001 26.700000000000003 C 943.4000000000001 25.700000000000003 943.4000000000001 24.6 943.4000000000001 23.6 C 943.4000000000001 23.200000000000003 943.2 22.900000000000002 942.8000000000001 22.8 C 942.7 22.8 942.6 22.8 942.6 22.8 z M 942 24.1 L 942 26 L 939.8 26 L 939.8 24.1 L 942 24.1 z" stroke-linecap="round" />
</g>
		<g transform="matrix(1 0 0 1 0.03 -0.72)" id="Tracé_294"  >
<path style="stroke: none; stroke-width: 1; stroke-dasharray: none; stroke-linecap: butt; stroke-dashoffset: 0; stroke-linejoin: miter; stroke-miterlimit: 4; fill: #7b68ee; fill-rule: nonzero; opacity: 1;" vector-effect="non-scaling-stroke"  transform=" translate(-945.11, -22.08)" d="M 960.6 33.2 C 960.5 33.2 960.5 33.2 960.4 33.2 L 958.3 33.2 C 959 32.800000000000004 959.5 32.1 959.4 31.200000000000003 C 959.3 29.900000000000002 959.1 28.6 958.6999999999999 27.300000000000004 C 958.5999999999999 26.900000000000006 958.4 26.600000000000005 958.0999999999999 26.200000000000003 C 957.8999999999999 25.900000000000002 957.5999999999999 25.800000000000004 957.3 25.800000000000004 C 957 25.800000000000004 956.6999999999999 26.000000000000004 956.5 26.200000000000003 C 956.3 26.500000000000004 956.1 26.800000000000004 955.9 27.200000000000003 C 955.4 28.500000000000004 955.1999999999999 29.900000000000002 955.1 31.200000000000003 C 955 32 955.5 32.800000000000004 956.2 33.1 L 954.2 33.1 L 954.2 30.8 C 954.2 27.7 954.2 24.4 954.2 21.3 C 954.2 21 954.1 20.6 953.9000000000001 20.400000000000002 C 951.6000000000001 17.3 949.3000000000001 14.300000000000002 947.1000000000001 11.300000000000002 L 946 9.7 C 945.8 9.2 945.3 9 944.8 9.299999999999999 C 944.5999999999999 9.399999999999999 944.4 9.499999999999998 944.4 9.7 L 942.5 12.299999999999999 C 940.5 14.899999999999999 938.5 17.599999999999998 936.5 20.299999999999997 C 936.2 20.599999999999998 936.1 20.999999999999996 936.1 21.4 C 936.1 24.4 936.1 27.5 936.1 30.5 L 936.1 33.1 L 934.1 33.1 C 934.9 32.7 935.3000000000001 31.900000000000002 935.2 31.1 C 935 29.900000000000002 934.8000000000001 28.700000000000003 934.6 27.5 C 934.5 27.1 934.3000000000001 26.7 934.1 26.4 C 933.9 26.099999999999998 933.6 25.799999999999997 933.2 25.799999999999997 L 933.2 25.799999999999997 C 932.8000000000001 25.799999999999997 932.4000000000001 25.999999999999996 932.2 26.4 C 932 26.599999999999998 931.9000000000001 26.9 931.8000000000001 27.2 C 931.3000000000001 28.5 931.1 29.9 931.0000000000001 31.2 C 930.9000000000001 32 931.4000000000001 32.8 932.1000000000001 33.2 L 930.7000000000002 33.2 C 930.4000000000002 33.2 930.0000000000001 33.2 929.7000000000002 33.2 C 929.2000000000002 33.2 928.8000000000002 33.6 928.8000000000002 34.1 C 928.8000000000002 34.1 928.8000000000002 34.1 928.8000000000002 34.1 C 928.8000000000002 34.6 929.1000000000001 35 929.6000000000001 35 C 929.7000000000002 35 929.8000000000002 35 929.9000000000001 35 L 960.4000000000001 35 L 960.5000000000001 35 C 961.0000000000001 35 961.4000000000001 34.6 961.4000000000001 34.1 C 961.5 33.5 961.1 33.1 960.6 33.2 L 960.6 33.2 z M 957.9 31 C 957.8 31 957.8 31 957.9 31 C 957.5 30.7 957.1 30.7 956.8 30.9 C 956.9 29.9 957.0999999999999 28.9 957.4 28 C 957.5 29 957.7 30 957.9 31 z M 952.5 21.9 L 952.5 33.099999999999994 C 949.9 33.099999999999994 947.8 33.099999999999994 946.3 33.099999999999994 L 937.9 33.099999999999994 L 937.9 29.799999999999994 L 945.6999999999999 29.799999999999994 L 945.8 29.699999999999992 C 945.9 29.59999999999999 946 29.39999999999999 946 29.199999999999992 L 946 29.09999999999999 L 946 12.8 L 952.3 21.3 L 952.4 21.3 C 952.4 21.3 952.4 21.3 952.4 21.3 L 952.4 21.400000000000002 C 952.5 21.6 952.5 21.8 952.5 21.9 L 952.5 21.9 z M 944.3 28.1 C 944.3 28.2 944.3 28.2 944.3 28.1 L 944.3 28.1 C 943.3 28.1 942.3 28.1 941 28.1 L 937.8 28.1 L 937.8 26.8 C 937.8 25.1 937.8 23.3 937.8 21.5 C 937.8 21.4 937.8 21.3 937.9 21.2 C 940 18.4 942.1 15.6 944.1 12.899999999999999 L 944.2 12.7 L 944.2 15 C 944.3 19.3 944.3 23.8 944.3 28.1 L 944.3 28.1 z M 933.7 30.9 L 933.7 30.9 C 933.6 30.7 933.4000000000001 30.7 933.2 30.7 L 933.2 30.7 C 933 30.7 932.8000000000001 30.8 932.7 30.9 L 932.7 30.9 C 932.8000000000001 29.9 933 28.9 933.3000000000001 28 C 933.4 28.9 933.6 29.9 933.7 30.9 L 933.7 30.9 z" stroke-linecap="round" />
</g>
</g>
</g>
</svg>