<?xml version="1.0" encoding="UTF-8" standalone="no" ?>
<!DOCTYPE svg PUBLIC "-//W3C//DTD SVG 1.1//EN" "http://www.w3.org/Graphics/SVG/1.1/DTD/svg11.dtd">
<svg xmlns="http://www.w3.org/2000/svg" xmlns:xlink="http://www.w3.org/1999/xlink" version="1.1" width="1080" height="1080" viewBox="0 0 1080 1080" xml:space="preserve">
<desc>Created with Fabric.js 5.2.4</desc>
<defs>
</defs>
<g transform="matrix(1 0 0 1 540 540)" id="80926f46-5747-4aa8-b99f-104c663028ad"  >
</g>
<g transform="matrix(1 0 0 1 540 540)" id="bf075737-0b9c-40da-a053-10d38ee8e7f7"  >
<rect style="stroke: none; stroke-width: 1; stroke-dasharray: none; stroke-linecap: butt; stroke-dashoffset: 0; stroke-linejoin: miter; stroke-miterlimit: 4; fill: rgb(255,255,255); fill-rule: nonzero; opacity: 1;" vector-effect="non-scaling-stroke"  x="-540" y="-540" rx="0" ry="0" width="1080" height="1080" />
</g>
<g transform="matrix(32.73 0 0 32.73 540 540)"  >
<g style=""   >
		<g transform="matrix(1 0 0 1 1.51 4.78)" id="Tracé_334"  >
<path style="stroke: none; stroke-width: 1; stroke-dasharray: none; stroke-linecap: butt; stroke-dashoffset: 0; stroke-linejoin: miter; stroke-miterlimit: 4; fill: #7b68ee; fill-rule: nonzero; opacity: 1;" vector-effect="non-scaling-stroke"  transform=" translate(-1461.06, -636.15)" d="M 1470.8 628.3 C 1470.6 628.0999999999999 1470.3 628.0999999999999 1470 628.0999999999999 L 1470 628.0999999999999 C 1469.4 628.1999999999999 1469.1 628.6999999999999 1469.2 629.3 C 1469.3 630 1469.4 630.6999999999999 1469.4 631.4 C 1469.4 637.4 1464.6000000000001 642.1999999999999 1458.6000000000001 642.1999999999999 C 1456.3000000000002 642.1999999999999 1454.1000000000001 641.4999999999999 1452.2 640.0999999999999 C 1451.7 639.8 1451.1000000000001 639.8999999999999 1450.8 640.3 C 1450.5 640.8 1450.6 641.4 1451 641.6999999999999 C 1453.2 643.3 1455.8 644.1999999999999 1458.6 644.1999999999999 C 1465.6999999999998 644.1999999999999 1471.3999999999999 638.4999999999999 1471.5 631.4 C 1471.5 631.4 1471.5 631.4 1471.5 631.4 C 1471.5 630.6 1471.4 629.6999999999999 1471.3 628.9 C 1471.2 628.7 1471 628.4 1470.8 628.3 z" stroke-linecap="round" />
</g>
		<g transform="matrix(1 0 0 1 -0.62 -2.37)" id="Tracé_335"  >
<path style="stroke: none; stroke-width: 1; stroke-dasharray: none; stroke-linecap: butt; stroke-dashoffset: 0; stroke-linejoin: miter; stroke-miterlimit: 4; fill: #7b68ee; fill-rule: nonzero; opacity: 1;" vector-effect="non-scaling-stroke"  transform=" translate(-1458.94, -629)" d="M 1448 631.5 C 1448 625.5 1452.8 620.7 1458.8 620.7 C 1461.8999999999999 620.7 1464.8 622 1466.8999999999999 624.3000000000001 L 1458.3999999999999 632.9000000000001 L 1453.8999999999999 627.6000000000001 C 1453.4999999999998 627.2000000000002 1452.8999999999999 627.1000000000001 1452.4999999999998 627.5000000000001 C 1452.4999999999998 627.5000000000001 1452.4999999999998 627.5000000000001 1452.4999999999998 627.5000000000001 C 1452.0999999999997 627.9000000000001 1451.9999999999998 628.5000000000001 1452.3999999999999 628.9000000000001 L 1456.8999999999999 634.4000000000001 C 1457.3 634.8000000000001 1457.8 635.1000000000001 1458.3999999999999 635.1000000000001 C 1458.8999999999999 635.1000000000001 1459.3999999999999 634.9000000000001 1459.6999999999998 634.5000000000001 L 1471.4999999999998 622.7000000000002 C 1471.8999999999999 622.3000000000002 1471.8999999999999 621.7000000000002 1471.4999999999998 621.3000000000002 L 1471.4999999999998 621.3000000000002 C 1471.0999999999997 620.9000000000002 1470.4999999999998 620.9000000000002 1470.0999999999997 621.3000000000002 L 1468.3999999999996 623.0000000000002 C 1463.5999999999997 617.8000000000002 1455.4999999999995 617.4000000000002 1450.2999999999997 622.1000000000003 C 1445.5999999999997 626.4000000000002 1444.6999999999998 633.4000000000002 1448.1999999999998 638.7000000000003 C 1448.4999999999998 639.2000000000003 1449.1 639.3000000000003 1449.6 639.0000000000002 C 1449.8 638.9000000000002 1450 638.6000000000003 1450 638.4000000000002 C 1450.1 638.1000000000003 1450 637.9000000000002 1449.9 637.6000000000003 C 1448.6 635.7 1448 633.7 1448 631.5 z" stroke-linecap="round" />
</g>
</g>
</g>
</svg>