<?xml version="1.0" encoding="UTF-8" standalone="no" ?>
<!DOCTYPE svg PUBLIC "-//W3C//DTD SVG 1.1//EN" "http://www.w3.org/Graphics/SVG/1.1/DTD/svg11.dtd">
<svg xmlns="http://www.w3.org/2000/svg" xmlns:xlink="http://www.w3.org/1999/xlink" version="1.1" width="1080" height="1080" viewBox="0 0 1080 1080" xml:space="preserve">
<desc>Created with Fabric.js 5.2.4</desc>
<defs>
</defs>
<g transform="matrix(1 0 0 1 540 540)" id="bf075737-0b9c-40da-a053-10d38ee8e7f7"  >
<rect style="stroke: none; stroke-width: 1; stroke-dasharray: none; stroke-linecap: butt; stroke-dashoffset: 0; stroke-linejoin: miter; stroke-miterlimit: 4; fill: #7b68ee; fill-rule: nonzero; opacity: 1; visibility: hidden;" vector-effect="non-scaling-stroke"  x="-540" y="-540" rx="0" ry="0" width="1080" height="1080" />
</g>
<g transform="matrix(1 0 0 1 540 540)" id="80926f46-5747-4aa8-b99f-104c663028ad"  >
</g>
<g transform="matrix(32.73 0 0 32.73 540 540)"  >
<g style=""   >
		<g transform="matrix(1 0 0 1 0.39 2.39)" id="Tracé_325"  >
<path style="stroke: none; stroke-width: 1; stroke-dasharray: none; stroke-linecap: butt; stroke-dashoffset: 0; stroke-linejoin: miter; stroke-miterlimit: 4; fill: #7b68ee; fill-rule: nonzero; opacity: 1;" vector-effect="non-scaling-stroke"  transform=" translate(-1383.95, -617.65)" d="M 1397.7 617.6 C 1397.7 617.6 1397.7 617.5 1397.7 617.5 L 1394 607.9 L 1394 607.8 C 1394 607.8 1394 607.6999999999999 1394 607.6999999999999 C 1394 607.6999999999999 1394 607.5999999999999 1393.9 607.5999999999999 C 1393.9 607.4999999999999 1393.8000000000002 607.4999999999999 1393.8000000000002 607.3999999999999 L 1393.7000000000003 607.2999999999998 C 1393.6000000000004 607.2999999999998 1393.6000000000004 607.1999999999998 1393.5000000000002 607.1999999999998 C 1393.5000000000002 607.1999999999998 1393.4000000000003 607.1999999999998 1393.4000000000003 607.1999999999998 C 1393.4000000000003 607.1999999999998 1393.3000000000004 607.1999999999998 1393.3000000000004 607.1999999999998 L 1388.0000000000005 607.0999999999998 L 1388.0000000000005 607.0999999999998 C 1387.7000000000005 607.0999999999998 1387.5000000000005 607.1999999999998 1387.3000000000004 607.3999999999997 C 1386.9000000000003 607.7999999999997 1386.9000000000003 608.3999999999997 1387.3000000000004 608.7999999999997 C 1387.5000000000005 608.9999999999998 1387.7000000000005 609.0999999999997 1388.0000000000005 609.0999999999997 L 1392.6000000000004 609.0999999999997 L 1395.5000000000005 616.7999999999997 L 1389.4000000000005 616.6999999999997 C 1389.1000000000006 616.6999999999997 1388.9000000000005 616.7999999999997 1388.7000000000005 616.9999999999997 C 1388.5000000000005 617.1999999999997 1388.4000000000005 617.3999999999996 1388.4000000000005 617.6999999999997 L 1388.4000000000005 618.4999999999997 C 1388.4000000000005 618.9999999999997 1388.2000000000005 619.4999999999997 1387.8000000000006 619.8999999999996 C 1387.4000000000005 620.2999999999996 1386.9000000000005 620.4999999999997 1386.4000000000005 620.4999999999997 L 1386.4000000000005 620.4999999999997 L 1381.2000000000005 620.3999999999996 C 1380.7000000000005 620.3999999999996 1380.2000000000005 620.1999999999996 1379.8000000000004 619.7999999999996 C 1379.4000000000003 619.3999999999996 1379.2000000000005 618.8999999999996 1379.2000000000005 618.3999999999996 L 1379.2000000000005 617.5999999999997 C 1379.2000000000005 617.0999999999997 1378.8000000000004 616.5999999999997 1378.2000000000005 616.5999999999997 C 1378.2000000000005 616.5999999999997 1378.2000000000005 616.5999999999997 1378.2000000000005 616.5999999999997 L 1372.4000000000005 616.4999999999997 L 1375.5000000000005 608.8999999999996 L 1380.1000000000004 608.8999999999996 C 1380.4000000000003 608.8999999999996 1380.6000000000004 608.7999999999996 1380.8000000000004 608.5999999999997 C 1381.0000000000005 608.3999999999996 1381.1000000000004 608.1999999999997 1381.1000000000004 607.8999999999996 C 1381.1000000000004 607.5999999999997 1381.0000000000005 607.3999999999996 1380.8000000000004 607.1999999999996 C 1380.6000000000004 606.9999999999995 1380.4000000000003 606.8999999999996 1380.1000000000004 606.8999999999996 L 1374.8000000000004 606.7999999999996 C 1374.7000000000005 606.7999999999996 1374.7000000000005 606.7999999999996 1374.6000000000004 606.7999999999996 C 1374.6000000000004 606.7999999999996 1374.5000000000005 606.7999999999996 1374.5000000000005 606.7999999999996 C 1374.4000000000005 606.7999999999996 1374.4000000000005 606.7999999999996 1374.3000000000004 606.8999999999996 L 1374.2000000000005 606.9999999999997 C 1374.1000000000006 606.9999999999997 1374.1000000000006 607.0999999999997 1374.0000000000005 607.1999999999997 C 1374.0000000000005 607.1999999999997 1374.0000000000005 607.2999999999997 1373.9000000000005 607.2999999999997 L 1373.9000000000005 607.3999999999997 C 1373.9000000000005 607.3999999999997 1373.9000000000005 607.3999999999997 1373.9000000000005 607.4999999999998 L 1370.1000000000006 616.8999999999997 L 1370.0000000000007 616.8999999999997 L 1370.0000000000007 617.0999999999998 L 1370.0000000000007 617.0999999999998 C 1370.0000000000007 617.0999999999998 1370.0000000000007 617.1999999999998 1370.0000000000007 617.1999999999998 C 1370.0000000000007 617.1999999999998 1370.0000000000007 617.2999999999998 1370.0000000000007 617.2999999999998 L 1370.0000000000007 621.8999999999999 C 1370.0000000000007 623.5999999999999 1370.6000000000006 625.1999999999998 1371.8000000000006 626.3999999999999 C 1372.9000000000005 627.5999999999999 1374.5000000000007 628.2999999999998 1376.2000000000007 628.2999999999998 L 1391.6000000000008 628.4999999999999 L 1391.7000000000007 628.4999999999999 C 1395.1000000000008 628.3999999999999 1397.9000000000008 625.5999999999999 1397.9000000000008 622.1999999999999 L 1397.9000000000008 617.6999999999999 L 1397.7 617.6 z M 1391.4 626.7 L 1391.4 626.7 L 1375.9 626.5 C 1374.8000000000002 626.5 1373.7 626 1372.9 625.2 C 1372.1000000000001 624.4000000000001 1371.7 623.2 1371.7 622.1 L 1371.7 618.5 L 1377.1000000000001 618.6 C 1377.1000000000001 619.6 1377.5000000000002 620.5 1378.2 621.2 C 1378.9 622 1379.9 622.4000000000001 1380.9 622.4000000000001 L 1386.1000000000001 622.5000000000001 L 1386.1000000000001 622.5000000000001 C 1388.2 622.5000000000001 1389.9 620.8000000000001 1390.0000000000002 618.7000000000002 L 1395.6000000000001 618.8000000000002 L 1395.6000000000001 622.4000000000002 C 1395.7 624.7 1393.8 626.6 1391.4 626.7 L 1391.4 626.7 z" stroke-linecap="round" />
</g>
		<g transform="matrix(1 0 0 1 0.29 -6.86)" id="Tracé_326"  >
<path style="stroke: none; stroke-width: 1; stroke-dasharray: none; stroke-linecap: butt; stroke-dashoffset: 0; stroke-linejoin: miter; stroke-miterlimit: 4; fill: #7b68ee; fill-rule: nonzero; opacity: 1;" vector-effect="non-scaling-stroke"  transform=" translate(-1383.85, -608.4)" d="M 1379.4 609.9 L 1379.4 609.9 C 1379.1000000000001 609.9 1378.9 610 1378.7 610.1999999999999 C 1378.3 610.5999999999999 1378.3 611.1999999999999 1378.7 611.5999999999999 L 1383 616.0999999999999 C 1383 616.0999999999999 1383.1 616.1999999999999 1383.1 616.1999999999999 L 1383.1 616.1999999999999 C 1383.1999999999998 616.3 1383.1999999999998 616.3 1383.3 616.4 C 1383.5 616.5 1383.6 616.6 1383.8 616.6 L 1383.8 616.6 C 1384.1 616.6 1384.3 616.5 1384.5 616.3000000000001 C 1384.6 616.2 1384.6 616.1 1384.7 616.1 L 1389 611.8000000000001 C 1389.4 611.4000000000001 1389.4 610.8000000000001 1389 610.4000000000001 C 1388.6 610.0000000000001 1388 610.0000000000001 1387.7 610.4000000000001 C 1387.7 610.4000000000001 1387.7 610.4000000000001 1387.7 610.4000000000001 L 1384.8 613.2 L 1384.8999999999999 601.2 C 1384.8999999999999 600.7 1384.4999999999998 600.2 1383.9999999999998 600.2 L 1383.9999999999998 600.2 C 1383.4999999999998 600.2 1382.9999999999998 600.6 1382.9999999999998 601.2 L 1382.8999999999999 613.2 L 1380.1 610.3000000000001 C 1379.9 610 1379.7 609.9 1379.4 609.9 z" stroke-linecap="round" />
</g>
</g>
</g>
</svg>